<svg width="128" height="40" viewBox="0 0 128 40" fill="none" xmlns="http://www.w3.org/2000/svg">
<g clip-path="url(#clip0_13_7)">
<path d="M79.3911 30.6217C71.9617 36.0977 61.1932 39.0194 51.9218 39.0194C38.9217 39.0194 27.2183 34.2112 18.3642 26.2141C17.6686 25.5853 18.2919 24.7282 19.1266 25.218C28.6819 30.7775 40.4966 34.1221 52.7009 34.1221C60.9317 34.1221 69.9861 32.4192 78.3115 28.8854C79.5692 28.3511 80.621 29.709 79.3911 30.6217Z" fill="white"/>
<path d="M82.4797 27.0878C81.5336 25.8747 76.2023 26.5146 73.8093 26.7985C73.0803 26.8875 72.969 26.2531 73.6256 25.7967C77.8718 22.8083 84.8393 23.6709 85.6518 24.6726C86.4643 25.6799 85.4403 32.6641 81.4502 35.9976C80.838 36.5096 80.2537 36.2369 80.5264 35.5579C81.4223 33.3208 83.4313 28.3066 82.4797 27.0878Z" fill="white"/>
<path d="M73.9762 4.69945V1.79447C73.9762 1.35483 74.3102 1.05988 74.7108 1.05988H87.7165C88.1339 1.05988 88.4678 1.36039 88.4678 1.79447V4.28207C88.4622 4.69945 88.1116 5.24483 87.4883 6.10742L80.749 15.7295C83.2533 15.6683 85.8967 16.0411 88.1673 17.3211C88.6792 17.6105 88.8184 18.0334 88.8573 18.4508V21.5506C88.8573 21.9735 88.3899 22.4688 87.9001 22.2128C83.8988 20.1148 78.5841 19.8866 74.1599 22.2351C73.7091 22.48 73.2361 21.9902 73.2361 21.5673V18.6233C73.2361 18.1503 73.2416 17.3434 73.7147 16.6255L81.5225 5.42848H74.7275C74.3102 5.42848 73.9762 5.13353 73.9762 4.69945Z" fill="white"/>
<path d="M26.5337 22.825H22.5769C22.1985 22.7972 21.898 22.5133 21.8702 22.1516V1.84456C21.8702 1.4383 22.2096 1.11553 22.6326 1.11553H26.3223C26.7063 1.13221 27.0123 1.42717 27.0402 1.79447V4.44902H27.1125C28.0753 1.88351 29.8839 0.687012 32.3214 0.687012C34.7979 0.687012 36.345 1.88351 37.458 4.44902C38.4152 1.88351 40.5912 0.687012 42.923 0.687012C44.5814 0.687012 46.3956 1.37152 47.503 2.90749C48.7552 4.61597 48.4992 7.09801 48.4992 9.27397L48.4936 22.0904C48.4936 22.4966 48.1542 22.825 47.7312 22.825H43.78C43.3849 22.7972 43.0677 22.4799 43.0677 22.0904V11.3275C43.0677 10.4705 43.1456 8.33346 42.9564 7.52096C42.6614 6.15751 41.7765 5.77351 40.6301 5.77351C39.6729 5.77351 38.6712 6.4135 38.265 7.43748C37.8587 8.46146 37.8977 10.1755 37.8977 11.3275V22.0904C37.8977 22.4966 37.5582 22.825 37.1353 22.825H33.184C32.7833 22.7972 32.4717 22.4799 32.4717 22.0904L32.4661 11.3275C32.4661 9.06249 32.839 5.72899 30.0286 5.72899C27.1848 5.72899 27.2962 8.97901 27.2962 11.3275V22.0904C27.2962 22.4966 26.9567 22.825 26.5337 22.825Z" fill="white"/>
<path d="M99.6648 0.687012C105.536 0.687012 108.714 5.72899 108.714 12.14C108.714 18.3339 105.202 23.2479 99.6648 23.2479C93.8993 23.2479 90.7606 18.2059 90.7606 11.923C90.7606 5.601 93.9383 0.687012 99.6648 0.687012ZM99.6981 4.83301C96.782 4.83301 96.5984 8.80649 96.5984 11.283C96.5984 13.765 96.5594 19.063 99.6648 19.063C102.731 19.063 102.876 14.789 102.876 12.1845C102.876 10.4705 102.803 8.4225 102.286 6.79749C101.841 5.38396 100.956 4.83301 99.6981 4.83301Z" fill="white"/>
<path d="M116.327 22.825H112.387C111.991 22.7972 111.674 22.4799 111.674 22.0904L111.669 1.77777C111.702 1.40491 112.03 1.11553 112.431 1.11553H116.098C116.444 1.13221 116.727 1.36596 116.805 1.68317V4.78849H116.878C117.985 2.01151 119.538 0.687012 122.27 0.687012C124.045 0.687012 125.776 1.327 126.889 3.08C127.924 4.70501 127.924 7.43748 127.924 9.40196V22.185C127.88 22.5412 127.551 22.825 127.162 22.825H123.194C122.832 22.7972 122.532 22.53 122.493 22.185V11.155C122.493 8.93449 122.749 5.68447 120.016 5.68447C119.054 5.68447 118.169 6.33003 117.729 7.30948C117.173 8.5505 117.1 9.78595 117.1 11.155V22.0904C117.095 22.4966 116.75 22.825 116.327 22.825Z" fill="white"/>
<path d="M63.6085 13.125V12.268C60.748 12.268 57.7262 12.8802 57.7262 16.2526C57.7262 17.9611 58.611 19.1186 60.1303 19.1186C61.2433 19.1186 62.2395 18.4341 62.8683 17.3211C63.6474 15.9521 63.6085 14.6665 63.6085 13.125ZM67.5986 22.7693C67.3371 23.0031 66.9587 23.0198 66.6637 22.8639C65.3503 21.7732 65.1166 21.2668 64.3931 20.2261C62.2228 22.441 60.6868 23.1032 57.8709 23.1032C54.5429 23.1032 51.9496 21.0497 51.9496 16.9371C51.9496 13.726 53.6915 11.539 56.1679 10.4705C58.3161 9.52439 61.3156 9.35744 63.6085 9.09588V8.58389C63.6085 7.64339 63.6808 6.53037 63.1299 5.71787C62.6457 4.98884 61.7219 4.68832 60.9094 4.68832C59.4013 4.68832 58.0545 5.46187 57.7262 7.06462C57.6594 7.42079 57.3978 7.77139 57.0417 7.78808L53.2017 7.37626C52.879 7.30392 52.5228 7.04236 52.6118 6.54707C53.4967 1.89464 57.6983 0.492233 61.4603 0.492233C63.3859 0.492233 65.9013 1.00422 67.4206 2.46228C69.3461 4.25981 69.1624 6.65836 69.1624 9.2684V15.4345C69.1624 17.2877 69.9304 18.1002 70.6539 19.1019C70.9099 19.4581 70.9655 19.8866 70.6428 20.1537C69.8358 20.8271 68.4 22.0793 67.6098 22.7805L67.5986 22.7693Z" fill="white"/>
<path d="M11.7362 13.125V12.268C8.87569 12.268 5.85384 12.8802 5.85384 16.2526C5.85384 17.9611 6.73869 19.1186 8.25797 19.1186C9.37099 19.1186 10.3671 18.4341 10.996 17.3211C11.7751 15.9521 11.7362 14.6665 11.7362 13.125ZM15.7263 22.7693C15.4648 23.0031 15.0863 23.0198 14.7914 22.8639C13.478 21.7732 13.2443 21.2668 12.5208 20.2261C10.3504 22.441 8.81448 23.1032 5.99854 23.1032C2.6706 23.1032 0.0772705 21.0497 0.0772705 16.9371C0.0772705 13.726 1.81915 11.539 4.29562 10.4705C6.44374 9.52439 9.44333 9.35744 11.7362 9.09588V8.58389C11.7362 7.64339 11.8085 6.53037 11.2576 5.71787C10.7734 4.98884 9.84959 4.68832 9.03708 4.68832C7.52894 4.68832 6.18218 5.46187 5.85384 7.06462C5.78706 7.42079 5.5255 7.77139 5.16934 7.78808L1.32942 7.37626C1.00664 7.30392 0.650475 7.04236 0.739517 6.54707C1.62437 1.89464 5.82602 0.492233 9.58803 0.492233C11.5136 0.492233 14.029 1.00422 15.5482 2.46228C17.4738 4.25981 17.2901 6.65836 17.2901 9.2684V15.4345C17.2901 17.2877 18.0581 18.1002 18.7816 19.1019C19.0376 19.4581 19.0932 19.8866 18.7704 20.1537C17.9635 20.8271 16.5277 22.0793 15.7375 22.7805L15.7263 22.7693Z" fill="white"/>
</g>
<defs>
<clipPath id="clip0_13_7">
<rect width="128" height="38.6335" fill="white" transform="translate(0 0.440002)"/>
</clipPath>
</defs>
</svg>
