<svg width="41" height="41" viewBox="0 0 41 41" fill="none" xmlns="http://www.w3.org/2000/svg">
<path d="M34.5486 35.0996V30.5724H31.1017L29.3271 28.6101L27.5435 30.5724H16.1787V21.4269H12.5107L17.0605 11.1301H21.4484L23.0147 14.6576V11.1301H28.4461L29.3891 13.7883L30.3383 11.1301H34.5486V6.52818H5.97717V35.0996H34.5486ZM31.6823 29.4273H34.5486L30.757 25.4065L34.5486 21.4314H31.7279L29.3864 23.9902L27.0673 21.4314H24.2004L27.9698 25.4294L24.2004 29.4273H26.9876L29.3406 26.8458L31.6823 29.4273ZM32.3529 25.4099L34.5486 27.7458V23.0934L32.3529 25.4099ZM19.5742 27.5769V26.3317H24.086V24.5269H19.5742V23.282H24.2002V21.4314H17.3924V29.4273H24.2002V27.5769H19.5742ZM32.3896 20.2711H34.5486V12.2752H31.1903L29.3968 17.2554L27.6149 12.2752H24.1996V20.2711H26.3584V14.674L28.4146 20.2711H30.3335L32.3896 14.6625V20.2711ZM21.7437 20.2711H24.1996L20.6702 12.2752H17.8601L14.3304 20.2711H16.7292L17.3918 18.672H21.0698L21.7437 20.2711ZM20.316 16.8785H18.1456L19.2308 14.2628L20.316 16.8785Z" fill="white"/>
</svg>
