<svg width="129" height="42" viewBox="0 0 129 42" fill="none" xmlns="http://www.w3.org/2000/svg">
<g clip-path="url(#clip0_13_18)">
<path d="M16.3027 14.1665V18.4216H26.4735C26.1622 20.8086 25.3665 22.5557 24.1557 23.7838C22.6681 25.2714 20.3503 26.8973 16.3027 26.8973C10.0411 26.8973 5.14596 21.8465 5.14596 15.5849C5.14596 9.32324 10.0411 4.27243 16.3027 4.27243C19.6757 4.27243 22.1492 5.60432 23.9654 7.31676L26.9579 4.32432C24.4324 1.86811 21.0422 0 16.3027 0C7.72326 0 0.510284 6.98811 0.510284 15.5676C0.510284 24.147 7.72326 31.1351 16.3027 31.1351C20.9384 31.1351 24.4324 29.613 27.1654 26.7762C29.9676 23.9741 30.8497 20.013 30.8497 16.8303C30.8497 15.8443 30.7806 14.9276 30.6249 14.1665H16.3027Z" fill="white"/>
<path d="M43.5633 10.707C38.0108 10.707 33.4789 14.9276 33.4789 20.7568C33.4789 26.5341 38.0108 30.8065 43.5633 30.8065C49.1157 30.8065 53.6476 26.5514 53.6476 20.7568C53.6476 14.9276 49.1157 10.707 43.5633 10.707ZM43.5633 26.8454C40.5189 26.8454 37.8897 24.3373 37.8897 20.7568C37.8897 17.1416 40.5189 14.6681 43.5633 14.6681C46.6076 14.6681 49.2368 17.1416 49.2368 20.7568C49.2368 24.3373 46.6076 26.8454 43.5633 26.8454Z" fill="white"/>
<path d="M92.9989 12.9557H92.8433C91.8573 11.7795 89.9546 10.707 87.5503 10.707C82.5341 10.707 78.1578 15.0832 78.1578 20.7568C78.1578 26.3957 82.5341 30.8065 87.5503 30.8065C89.9546 30.8065 91.8573 29.7341 92.8433 28.5232H92.9989V29.9243C92.9989 33.7643 90.9405 35.8227 87.6368 35.8227C84.9384 35.8227 83.2605 33.8854 82.5687 32.2422L78.7287 33.8335C79.8357 36.4973 82.7589 39.7665 87.6368 39.7665C92.8087 39.7665 97.1849 36.7222 97.1849 29.3016V11.2259H92.9989V12.9557ZM87.9308 26.8454C84.8865 26.8454 82.5687 24.2508 82.5687 20.7568C82.5687 17.2108 84.8865 14.6681 87.9308 14.6681C90.9406 14.6681 93.293 17.2627 93.293 20.7914C93.3103 24.3027 90.9406 26.8454 87.9308 26.8454Z" fill="white"/>
<path d="M66.0497 10.707C60.4973 10.707 55.9654 14.9276 55.9654 20.7568C55.9654 26.5341 60.4973 30.8065 66.0497 30.8065C71.6022 30.8065 76.1341 26.5514 76.1341 20.7568C76.1341 14.9276 71.6022 10.707 66.0497 10.707ZM66.0497 26.8454C63.0054 26.8454 60.3762 24.3373 60.3762 20.7568C60.3762 17.1416 63.0054 14.6681 66.0497 14.6681C69.0941 14.6681 71.7232 17.1416 71.7232 20.7568C71.7232 24.3373 69.0941 26.8454 66.0497 26.8454Z" fill="white"/>
<path d="M100.644 0.415131H104.986V30.8065H100.644V0.415131Z" fill="white"/>
<path d="M118.391 26.8454C116.143 26.8454 114.551 25.8249 113.514 23.8011L126.954 18.2487L126.504 17.107C125.674 14.8584 123.114 10.707 117.907 10.707C112.735 10.707 108.428 14.7719 108.428 20.7568C108.428 26.3957 112.683 30.8065 118.391 30.8065C122.992 30.8065 125.656 27.987 126.763 26.3611L123.338 24.0778C122.197 25.7384 120.64 26.8454 118.391 26.8454ZM118.08 14.4778C119.862 14.4778 121.384 15.3946 121.885 16.6919L112.804 20.4454C112.804 16.2249 115.797 14.4778 118.08 14.4778Z" fill="white"/>
</g>
<defs>
<clipPath id="clip0_13_18">
<rect width="128" height="41.5135" fill="white" transform="translate(0.320007)"/>
</clipPath>
</defs>
</svg>
