<svg width="129" height="28" viewBox="0 0 129 28" fill="none" xmlns="http://www.w3.org/2000/svg">
<g clip-path="url(#clip0_13_28)">
<path d="M54.2314 6.28915C51.9432 6.28915 49.3409 7.34988 47.7509 9.47348L47.752 9.46918L47.7509 9.47025L47.752 6.62265H42.2945V26.4967H47.7509V15.1881C47.7509 13.1527 49.3291 10.9893 52.2509 10.9893C54.509 10.9893 56.8456 12.5599 56.8456 15.1881V26.4967H62.303V14.1768C62.303 9.6058 59.0326 6.28915 54.2314 6.28915Z" fill="white"/>
<path d="M101.09 6.62349L96.1567 20.1612L91.2231 6.62349H84.989L93.166 26.4911H99.1463L107.323 6.62349H101.09Z" fill="white"/>
<path d="M26.0021 12.6106C26.9316 11.3626 28.4119 10.63 30.1998 10.63C32.1664 10.63 33.6585 11.7532 34.4298 13.4109L24.8951 17.3666C24.6348 15.3366 25.1544 13.7487 26.0021 12.6106ZM36.4867 20.3863C34.1899 22.0861 32.8775 22.4916 30.7829 22.4916C28.8981 22.4916 27.4222 21.9064 26.3819 20.8801L40.3337 15.0924C40.0293 12.9354 39.2106 11.0087 37.9509 9.54349C36.1177 7.41451 33.4046 6.28816 30.1009 6.28816C24.1001 6.28816 19.5754 10.715 19.5754 16.5619C19.5754 22.5605 24.1109 26.8346 30.7022 26.8346C34.3954 26.8346 38.1714 25.0843 39.9378 23.0392L36.4867 20.3863Z" fill="white"/>
<path d="M19.0552 21.4857H6.65144V0.67894H1.11975V26.4967H19.0552V21.4857Z" fill="white"/>
<path d="M117.123 10.9647C114.075 10.9647 111.862 13.2744 111.862 16.5599C111.862 19.6969 114.206 22.155 117.196 22.155C120.245 22.155 122.457 19.7819 122.457 16.5599C122.457 13.4229 120.113 10.9647 117.123 10.9647ZM117.123 26.8315C111.154 26.8315 106.478 22.3853 106.478 16.5599C106.478 10.8001 111.187 6.28828 117.196 6.28828C123.164 6.28828 127.84 10.7345 127.84 16.5599C127.84 22.3186 123.132 26.8315 117.123 26.8315Z" fill="white"/>
<path d="M75.1059 10.9647C72.0582 10.9647 69.8463 13.2744 69.8463 16.5599C69.8463 19.6969 72.1894 22.155 75.1801 22.155C78.2278 22.155 80.4396 19.7819 80.4396 16.5599C80.4396 13.4229 78.0965 10.9647 75.1059 10.9647ZM75.1059 26.8315C69.1374 26.8315 64.462 22.3853 64.462 16.5599C64.462 10.8001 69.1697 6.28828 75.1801 6.28828C81.1475 6.28828 85.8239 10.7345 85.8239 16.5599C85.8239 22.3186 81.1152 26.8315 75.1059 26.8315Z" fill="white"/>
</g>
<defs>
<clipPath id="clip0_13_28">
<rect width="128" height="26.88" fill="white" transform="translate(0.479736 0.316757)"/>
</clipPath>
</defs>
</svg>
