<svg width="128" height="21" viewBox="0 0 128 21" fill="none" xmlns="http://www.w3.org/2000/svg">
<g clip-path="url(#clip0_13_63)">
<path d="M105.884 15.8767L105.634 1.52533H110.159V19.6136H103.653L99.137 4.76891H99.0399L99.2904 19.6136H94.7941V1.52533H101.582L105.783 15.8767H105.884Z" fill="white"/>
<path d="M23.6237 3.21898L21.1202 19.804H16.1849L19.5741 1.52533H27.7044L31.0781 19.804H26.1623L23.7267 3.21898H23.6237Z" fill="white"/>
<path d="M42.5724 19.804L39.5153 3.37048H39.4163L39.3017 19.804H34.7238L35.1277 1.52533H42.586L44.8429 15.498H44.9401L47.1989 1.52533H54.6533L55.0495 19.804H50.4813L50.3609 3.37048H50.2657L47.2106 19.804H42.5724Z" fill="white"/>
<path d="M8.48769 14.6473C8.66638 15.0901 8.612 15.6592 8.52848 16.003C8.37504 16.6109 7.96328 17.2305 6.74743 17.2305C5.60149 17.2305 4.90616 16.574 4.90616 15.5698V13.8004H0.00389006L0 15.2163C0 19.2912 3.20862 20.5207 6.64642 20.5207C9.95216 20.5207 12.6752 19.3903 13.1083 16.3448C13.3297 14.7657 13.1647 13.7325 13.0889 13.3421C12.3178 9.5158 5.38007 8.37375 4.86343 6.23338C4.77602 5.86629 4.80127 5.47784 4.844 5.27001C4.97025 4.68733 5.37036 4.04445 6.51435 4.04445C7.58259 4.04445 8.21383 4.70482 8.21383 5.70314C8.21383 6.03915 8.21383 6.83159 8.21383 6.83159H12.7723V5.54776C12.7723 1.56612 9.19856 0.944595 6.60952 0.944595C3.35817 0.944595 0.701159 2.01867 0.215594 4.99421C0.0835203 5.81579 0.0640972 6.54802 0.25638 7.46477C1.05465 11.1997 7.54764 12.2816 8.48769 14.6473Z" fill="white"/>
<path d="M67.9248 14.6142C68.1054 15.0532 68.0472 15.6067 67.9656 15.9505C67.816 16.5565 67.4082 17.1664 66.2001 17.1664C65.0697 17.1664 64.3802 16.5099 64.3802 15.529L64.3763 13.7752H59.5245L59.5187 15.1717C59.5187 19.2057 62.6982 20.4235 66.101 20.4235C69.3718 20.4235 72.0696 19.3087 72.4949 16.2904C72.7164 14.723 72.559 13.7033 72.4794 13.3207C71.7122 9.5294 64.8444 8.399 64.3335 6.27999C64.2461 5.91485 64.2714 5.53028 64.3161 5.33411C64.4462 4.74755 64.8385 4.12019 65.9709 4.12019C67.0294 4.12019 67.647 4.76503 67.647 5.75558C67.647 6.08771 67.647 6.87238 67.647 6.87238H72.1706V5.60214C72.1706 1.66323 68.6259 1.04559 66.0622 1.04559C62.8477 1.04559 60.2121 2.10607 59.7362 5.06025C59.6041 5.87017 59.5905 6.58881 59.7789 7.50167C60.5656 11.1978 66.9945 12.2719 67.9248 14.6142Z" fill="white"/>
<path d="M83.2784 17.0693C84.5467 17.0693 84.9429 16.1914 85.0303 15.7427C85.0672 15.5446 85.0769 15.2804 85.073 15.0435V1.51756H89.6956V14.6298C89.7053 14.9658 89.6723 15.6572 89.6568 15.8301C89.3324 19.2426 86.6346 20.3497 83.2765 20.3497C79.9144 20.3497 77.2146 19.2426 76.8942 15.8301C76.8786 15.6572 76.8456 14.9658 76.8553 14.6298V1.51756H81.474V15.0435C81.474 15.2804 81.4818 15.5465 81.5168 15.7427C81.6158 16.1914 82.0004 17.0693 83.2784 17.0693Z" fill="white"/>
<path d="M121.409 16.877C122.734 16.877 123.196 16.0399 123.281 15.5524C123.314 15.3426 123.324 15.0882 123.322 14.857V12.2039H121.446V9.53523H127.927V14.4414C127.923 14.7832 127.915 15.0357 127.861 15.6456C127.556 18.9707 124.672 20.1575 121.432 20.1575C118.187 20.1575 115.306 18.9707 114.997 15.6456C114.945 15.0357 114.937 14.7832 114.931 14.4414L114.935 6.74419C114.935 6.41984 114.976 5.84493 115.011 5.53999C115.417 2.12355 118.187 1.02423 121.432 1.02423C124.674 1.02423 127.511 2.11772 127.848 5.53999C127.908 6.12267 127.888 6.74419 127.888 6.74419V7.35406H123.279V6.33049C123.283 6.33244 123.273 5.89543 123.219 5.63516C123.141 5.23117 122.79 4.30277 121.397 4.30277C120.065 4.30277 119.674 5.18067 119.577 5.63516C119.521 5.876 119.5 6.2023 119.5 6.49753V14.857C119.496 15.0882 119.509 15.3426 119.546 15.5524C119.626 16.0418 120.086 16.877 121.409 16.877Z" fill="white"/>
</g>
<defs>
<clipPath id="clip0_13_63">
<rect width="128" height="19.6243" fill="white" transform="translate(0 0.944595)"/>
</clipPath>
</defs>
</svg>
