<svg width="129" height="35" viewBox="0 0 129 35" fill="none" xmlns="http://www.w3.org/2000/svg">
<g clip-path="url(#clip0_19_66)">
<path d="M11.566 20.7883L16.0084 8.18523H22.4361L11.6035 34.8429H4.8178L7.90959 27.5398L0.320068 8.20476H6.87791L11.566 20.7883ZM45.1249 27.6912H38.8519V25.535C37.6884 26.4138 36.6388 27.0809 35.6869 27.5366C34.7349 27.9922 33.5714 28.2233 32.2696 28.2233C30.1151 28.2233 28.4553 27.613 27.3114 26.3731C26.1479 25.1331 25.5767 23.3024 25.5767 20.8811V8.18849H31.8498V17.8544L31.9474 20.3148C32.0044 20.9625 32.159 21.5157 32.3868 21.9356C32.6011 22.3507 32.9507 22.6802 33.3778 22.8696C33.8171 23.06 34.4453 23.156 35.2459 23.156C35.7796 23.156 36.385 23.0584 37.0359 22.8696C37.7003 22.6759 38.3305 22.38 38.9039 21.9925V8.20476H45.1249V27.6912ZM70.3149 17.6591C70.3149 20.7298 69.4752 23.2276 67.7796 25.1526C66.084 27.0777 63.9653 28.0492 61.4333 28.0492C60.3463 28.0492 59.3927 27.9352 58.5726 27.7237C57.7502 27.4906 56.9619 27.1509 56.2277 26.7132L55.9608 27.6863H49.94V0.670563H56.2131V10.2226C57.119 9.49672 58.1044 8.87601 59.1503 8.37237C60.1266 7.89558 61.3048 7.66614 62.6001 7.66614C65.0605 7.66614 66.9481 8.56113 68.2824 10.3348C69.6363 12.089 70.284 14.5657 70.284 17.6575L70.3149 17.6591ZM63.8872 17.7926C63.8872 16.0579 63.6008 14.7219 63.0085 13.7895C62.4162 12.8571 61.3682 12.3787 59.863 12.3787C59.2499 12.3846 58.6406 12.4744 58.0519 12.6455C57.4251 12.8232 56.8235 13.0802 56.2619 13.4104V23.1739C56.6773 23.3197 57.1047 23.4286 57.5393 23.4993C58.0198 23.565 58.5042 23.5971 58.9892 23.5954C60.649 23.5954 61.8694 23.1186 62.67 22.1308C63.4902 21.1577 63.8905 19.7095 63.8905 17.7649L63.8872 17.7926ZM80.8758 5.42215H74.2593V0.670563H80.8758V5.42215ZM80.7049 27.6928H74.4156V8.20476H80.6886L80.7049 27.6928ZM96.7041 28.2037C95.0069 28.2037 93.4431 27.9922 92.0501 27.5935C90.6393 27.1932 89.4189 26.5635 88.3888 25.7254C87.3481 24.8683 86.5251 23.7771 85.987 22.5409C85.4142 21.2635 85.1294 19.7746 85.1294 18.022C85.1294 16.2109 85.4337 14.6471 86.0439 13.3127C86.6122 12.0312 87.482 10.9063 88.5792 10.0338C89.6616 9.19551 90.8994 8.57995 92.221 8.22266C93.5944 7.84188 95.0248 7.64987 96.5121 7.64987C97.8464 7.64987 99.0669 7.80283 100.193 8.08923C101.275 8.36294 102.328 8.73946 103.338 9.21366V14.5348H102.46L101.581 13.8107C101.19 13.4963 100.769 13.2216 100.323 12.9905C99.8229 12.7317 99.2993 12.5208 98.7593 12.3608C98.1865 12.1899 97.5389 12.1134 96.7741 12.1134C95.1143 12.1134 93.8369 12.6472 92.9419 13.6967C92.0469 14.7642 91.6075 16.1946 91.6075 18.0057C91.6075 19.8738 92.0632 21.3042 92.9809 22.2773C93.8987 23.2504 95.2103 23.7418 96.8896 23.7418C97.6034 23.7462 98.3147 23.6565 99.005 23.4749C99.552 23.3355 100.078 23.1237 100.569 22.8452C100.969 22.6174 101.312 22.3684 101.617 22.1211L102.456 21.3774H103.335V26.6985C102.359 27.1542 101.334 27.5382 100.247 27.8051C99.1791 28.0915 97.9961 28.2249 96.6992 28.2249L96.7041 28.2037ZM128.318 17.9471C128.318 21.1528 127.384 23.6865 125.515 25.5171C123.647 27.3673 121.015 28.2835 117.639 28.2835C114.262 28.2835 111.618 27.369 109.763 25.5171C107.908 23.6653 106.959 21.1512 106.959 17.9471C106.959 14.7252 107.893 12.1867 109.781 10.3397C111.668 8.50906 114.28 7.57339 117.637 7.57339C121.032 7.57339 123.663 8.50743 125.529 10.3397C127.38 12.1899 128.296 14.7252 128.296 17.9292L128.318 17.9471ZM120.635 22.6955C121.055 22.165 121.365 21.5567 121.549 20.9055C121.757 20.2025 121.853 19.2294 121.853 18.009C121.853 16.865 121.756 15.8935 121.549 15.1287C121.342 14.3639 121.053 13.7374 120.67 13.2785C120.326 12.8266 119.865 12.4777 119.336 12.2696C118.799 12.0762 118.231 11.9793 117.66 11.9832C117.05 11.9832 116.516 12.0597 116.059 12.2306C115.582 12.4015 115.144 12.7074 114.705 13.2037C114.324 13.6593 114.018 14.2712 113.79 15.0539C113.562 15.8366 113.465 16.8439 113.465 18.0285C113.465 19.096 113.562 20.0138 113.751 20.7948C113.94 21.5759 114.228 22.2057 114.63 22.6825C114.993 23.1381 115.45 23.4635 115.964 23.6588C116.479 23.8541 117.071 23.9631 117.718 23.9631C118.272 23.9657 118.821 23.8687 119.339 23.6767C119.844 23.4581 120.29 23.1236 120.641 22.7004L120.635 22.6955Z" fill="white"/>
</g>
<defs>
<clipPath id="clip0_19_66">
<rect width="128" height="34.1724" fill="white" transform="translate(0.320068 0.670563)"/>
</clipPath>
</defs>
</svg>
