<svg width="128" height="25" viewBox="0 0 128 25" fill="none" xmlns="http://www.w3.org/2000/svg">
<g clip-path="url(#clip0_16_16)">
<path fill-rule="evenodd" clip-rule="evenodd" d="M55.2995 6.76795C56.9551 6.76795 58.5758 7.06583 59.5521 7.33518L59.6357 7.35851L59.7143 6.96044H66.4643V9.17487L64.9703 9.33495L67.1046 16.832H67.2914L69.6659 7.30728H73.6946L75.989 16.832H76.1491L78.1501 9.33495L76.6293 9.17487L76.9762 6.96044H82.579L82.5786 8.45379C82.4575 8.69317 82.3451 8.93768 82.2417 9.1869L81.6185 9.30827C81.2593 9.35957 81.0975 9.48488 80.9907 9.80278L80.9782 9.84186L77.6965 20.8606H73.4811L71.4001 11.9229H71.24L69.1323 20.8606H64.3299L60.9683 9.81518C60.866 9.50836 60.7392 9.44657 60.4471 9.37151L60.408 9.36163L60.1727 9.31115L60.1879 9.37148V11.3942L57.3452 11.2083L57.0794 9.82554C57.0532 9.61284 56.9998 9.50662 56.8142 9.45338L56.7294 9.42891C56.3703 9.33141 55.776 9.24067 55.1139 9.24067C53.7855 9.24067 53.0415 9.74581 53.0415 10.5966C53.0415 11.5263 54.1046 11.8373 55.4227 12.1396L56.3127 12.3421L56.4358 12.3714C58.4497 12.856 60.5865 13.6749 60.5865 16.6318C60.5865 19.8756 57.9566 21.2048 54.5824 21.2048C52.2289 21.2048 49.9258 20.6001 49.3641 20.2738L49.3222 20.2478V16.3926L52.1648 16.6053L52.4308 18.1207L52.4391 18.1855C52.4687 18.3797 52.5333 18.4715 52.7495 18.5194L52.8118 18.5393L52.8828 18.5601L52.9622 18.5815L53.0536 18.604C53.4368 18.6944 54.0326 18.7853 54.7952 18.7853C56.2028 18.7853 56.9998 18.3867 56.9998 17.4029C56.9998 16.3568 55.9716 16.0311 54.6488 15.7928L54.0438 15.6838L53.7861 15.635C51.7141 15.2315 49.4288 14.5012 49.4288 11.421C49.4288 8.12418 52.2445 6.76795 55.2995 6.76795ZM30.7994 6.76795C34.7752 6.76795 36.3947 7.8368 36.4267 11.4696L36.4272 11.5804L36.4273 18.0798L36.4282 18.1512L36.4305 18.2146L36.4348 18.2727C36.4552 18.4721 36.528 18.5232 36.7786 18.5624L36.85 18.5726L37.9249 18.7529V16.3926L40.752 16.6053L41.0166 18.1207C41.0424 18.3599 41.0958 18.4664 41.3335 18.5194L41.3955 18.5393L41.4661 18.5601L41.5451 18.5815L41.6359 18.604C42.0171 18.6944 42.6096 18.7853 43.3681 18.7853C44.768 18.7853 45.5606 18.3867 45.5606 17.4029C45.5606 16.3917 44.6051 16.0536 43.353 15.817L42.6125 15.6823L42.3565 15.6334L42.1707 15.5961L41.9898 15.5579C40.038 15.1348 38.031 14.3153 38.031 11.421C38.031 8.12418 40.8313 6.76795 43.8696 6.76795C45.8866 6.76795 47.8545 7.21521 48.6523 7.50896L48.7313 7.53904V11.3942L45.9041 11.2083L45.6398 9.82554C45.6138 9.61284 45.5606 9.50662 45.3761 9.45338C45.0325 9.34716 44.3984 9.24067 43.685 9.24067C42.3638 9.24067 41.6239 9.74581 41.6239 10.5966C41.6239 11.5424 42.718 11.8476 44.0602 12.1551L44.6888 12.2983C46.776 12.7766 49.1277 13.5212 49.1277 16.6318C49.1277 19.8754 46.5122 21.2048 43.1565 21.2048C41.0189 21.2048 38.9278 20.7012 38.1552 20.365L38.1182 20.3486V20.8856H33.2565L32.9919 19.4499L32.8601 19.4235C31.8563 20.4073 30.5352 21.2048 28.4214 21.2048C25.0927 21.2048 24.5639 18.9186 24.5639 17.2699C24.5639 14.6378 26.1697 13.4129 29.4063 13.1823L32.5431 12.9631L32.5431 11.4496L32.5417 11.2989L32.5397 11.1994L32.5344 11.0541L32.5291 10.9597C32.4682 10.0119 32.1621 9.4004 30.7729 9.4004L30.6109 9.40156L30.5067 9.4038C29.4294 9.43429 28.8617 9.69381 28.8445 11.1143L28.8441 11.1818L25.1185 10.8623C25.1185 7.30925 28.304 6.77836 30.7263 6.7681L30.7994 6.76795ZM126.531 0.800705L126.531 18.0288L126.534 18.0903C126.546 18.3216 126.607 18.3773 126.876 18.4195L128.199 18.6143V20.6961H123.349L123.088 19.2204L122.906 19.1941C121.811 20.2745 120.533 21.0123 118.629 21.0123C115.552 21.0123 113.57 19.036 113.57 14.0028C113.57 8.70617 116.204 6.70345 119.099 6.70345C120.575 6.70345 121.728 7.20568 122.704 7.91598L122.775 7.96832V3.96289C122.775 3.71324 122.682 3.53455 122.472 3.44921L122.436 3.43586L121.002 2.93518L121.289 0.800705H126.531ZM111.362 6.57546C111.958 6.57546 113.131 6.67572 113.645 6.80357L113.696 6.81689V11.6991L110.477 11.5918L110.208 10.1701C110.155 9.92866 110.074 9.875 109.86 9.875C109.203 9.875 108.428 10.3978 108.004 10.75L107.928 10.8139L107.928 17.969C107.931 18.3452 107.968 18.4282 108.321 18.4565L111.013 18.6738V20.8198H102.241V18.647L103.448 18.486C103.812 18.4341 103.874 18.3571 103.877 17.9875L103.878 10.0896C103.878 9.80794 103.804 9.62404 103.564 9.53791L103.529 9.52627L102.095 9.02138L102.084 8.99487L102.375 6.84371H107.097L107.419 8.98976H107.58C108.465 7.62165 109.645 6.57546 111.362 6.57546ZM18.6257 1.57067C23.5564 1.57067 25.0483 4.17642 25.0483 7.2338C25.0483 11.8136 22.3062 13.6835 17.8809 13.7204L17.7463 13.721H15.8008L15.8012 18.0504L15.8028 18.1178L15.8061 18.1797C15.8231 18.4021 15.8918 18.4559 16.1568 18.4967L16.2275 18.5068L20.0382 18.7195V20.8198H9.59171L9.59167 20.8137L9.58006 20.8198H0.309411V18.7287L2.58049 18.543C2.92583 18.5184 2.9947 18.4246 3.00234 18.0895L3.00312 18.014V8.87238C3.00312 8.4932 2.71806 8.55576 0.732618 9.22857L0 7.05776L4.53775 4.45805H6.99134L6.99142 18.0526L6.99232 18.1242L6.99459 18.1883C7.00815 18.4507 7.07465 18.516 7.37816 18.5404L7.41424 18.543L9.58006 18.7287L9.59167 18.7344L9.59171 18.7195L11.2706 18.5333C11.6185 18.4839 11.6884 18.4111 11.6962 18.0773L11.697 18.0017V4.41561C11.697 4.03024 11.6469 3.91764 11.3068 3.88663L11.2706 3.88371L9.59171 3.69776V1.57067H18.6257ZM32.4685 15.0306L30.6721 15.1624C29.1142 15.2677 28.5595 15.6628 28.5595 16.7169C28.5595 17.7713 29.1934 18.1664 30.065 18.1664C30.936 18.1664 31.8069 17.6954 32.4125 17.2587L32.4685 17.2178V15.0306ZM120.252 9.76247C118.339 9.76247 117.576 11.5542 117.56 13.8789L117.56 13.9549C117.56 16.5287 118.292 17.9615 119.938 17.9615C120.802 17.9615 121.739 17.4607 122.439 16.8727L122.5 16.8206V10.5585C121.846 10.1074 121.01 9.76247 120.252 9.76247ZM17.3045 4.49013H15.7457V10.8405L17.1189 10.8404L17.2228 10.8394L17.3761 10.8359L17.4754 10.8323L17.6214 10.8247C19.1948 10.7285 20.7379 10.1315 20.7379 7.46761C20.7379 4.93775 19.1792 4.49013 17.3045 4.49013Z" fill="white"/>
<path fill-rule="evenodd" clip-rule="evenodd" d="M92.1319 2.20731C98.3466 2.20731 103.385 7.24538 103.385 13.4601C103.385 19.675 98.3466 24.7128 92.1319 24.7128C85.9172 24.7128 80.8792 19.675 80.8792 13.4601C80.8792 7.24538 85.9172 2.20731 92.1319 2.20731ZM92.1319 4.49302C87.1796 4.49302 83.1649 8.50774 83.1649 13.4601C83.1649 18.4126 87.1796 22.4271 92.1319 22.4271C97.0842 22.4271 101.099 18.4126 101.099 13.4601C101.099 8.50774 97.0842 4.49302 92.1319 4.49302ZM92.1319 6.77873C95.8218 6.77873 98.8132 9.77011 98.8132 13.4601C98.8132 17.1502 95.8218 20.1414 92.1319 20.1414C88.442 20.1414 85.4506 17.1502 85.4506 13.4601C85.4506 9.77011 88.442 6.77873 92.1319 6.77873ZM93.2099 8.7128H91.0539C90.7853 8.7128 90.5657 8.94673 90.5503 9.24169L90.5495 9.27471V11.5277C90.5526 11.6113 90.5809 11.6959 90.6314 11.763L90.6514 11.7873L90.9667 12.1385C91.0911 12.2771 91.0977 12.4973 90.9864 12.6444L90.9667 12.6683L90.6514 13.0195C90.5954 13.0819 90.5612 13.1641 90.5542 13.2514L90.5529 13.2844L90.5495 17.6454C90.5495 17.9446 90.7595 18.1893 91.0243 18.2064L91.0539 18.2073H93.2099C93.4785 18.2073 93.6981 17.9734 93.7135 17.6784L93.7143 17.6454V15.563C93.7143 15.4747 93.6863 15.3896 93.6358 15.3224L93.6158 15.2981L93.3005 14.9469C93.1761 14.8083 93.1696 14.5881 93.2809 14.441L93.3005 14.4171L93.6158 14.0659C93.6719 14.0035 93.7061 13.9213 93.713 13.834L93.7143 13.8011V9.27471C93.7143 8.96438 93.4885 8.7128 93.2099 8.7128Z" fill="white"/>
</g>
<defs>
<clipPath id="clip0_16_16">
<rect width="128" height="23.9121" fill="white" transform="translate(0 0.800705)"/>
</clipPath>
</defs>
</svg>
