<svg width="34" height="41" viewBox="0 0 34 41" fill="none" xmlns="http://www.w3.org/2000/svg">
<g clip-path="url(#clip0_13_16)">
<path d="M32.284 14.3928C32.052 14.5728 27.956 16.8808 27.956 22.0128C27.956 27.9488 33.168 30.0488 33.324 30.1008C33.3 30.2288 32.496 32.9768 30.576 35.7768C28.864 38.2408 27.076 40.7008 24.356 40.7008C21.636 40.7008 20.936 39.1208 17.796 39.1208C14.736 39.1208 13.648 40.7528 11.16 40.7528C8.67201 40.7528 6.93601 38.4728 4.94001 35.6728C2.62801 32.3848 0.76001 27.2768 0.76001 22.4288C0.76001 14.6528 5.81601 10.5288 10.792 10.5288C13.436 10.5288 15.64 12.2648 17.3 12.2648C18.88 12.2648 21.344 10.4248 24.352 10.4248C25.492 10.4248 29.588 10.5288 32.284 14.3928ZM22.924 7.13276C24.168 5.65676 25.048 3.60876 25.048 1.56076C25.048 1.27676 25.024 0.98876 24.972 0.75676C22.948 0.83276 20.54 2.10476 19.088 3.78876C17.948 5.08476 16.884 7.13276 16.884 9.20876C16.884 9.52076 16.936 9.83276 16.96 9.93276C17.088 9.95676 17.296 9.98476 17.504 9.98476C19.32 9.98476 21.604 8.76876 22.924 7.13276Z" fill="white"/>
</g>
<defs>
<clipPath id="clip0_13_16">
<rect width="32.56" height="40" fill="white" transform="translate(0.76001 0.75676)"/>
</clipPath>
</defs>
</svg>
