<svg width="82" height="33" viewBox="0 0 82 33" fill="none" xmlns="http://www.w3.org/2000/svg">
<g clip-path="url(#clip0_13_25)">
<path d="M7.05262 1.82411H1.28482V7.59191H7.05262V1.82411Z" fill="white"/>
<path d="M6.90893 31.8741V11.0813H1.4285V31.8536H6.90893V31.8741ZM43.1989 32.0794V26.989C42.3983 26.989 41.721 26.9479 41.2284 26.8658C40.6536 26.7837 40.2226 26.5784 39.9352 26.2911C39.6479 26.0037 39.4631 25.5932 39.3605 25.039C39.2784 24.5258 39.2373 23.8485 39.2373 23.0275V15.7818H43.1989V11.0813H39.2373V2.99409H33.7569V23.089C33.7569 24.7927 33.9006 26.2295 34.188 27.379C34.4753 28.5079 34.9679 29.4316 35.6453 30.1294C36.3227 30.8273 37.2258 31.3199 38.3137 31.6278C39.4221 31.9357 40.8178 32.0794 42.4804 32.0794H43.1989ZM74.5626 31.8741V1.39307H69.0821V31.8741H74.5626ZM28.4817 13.1339C26.9628 11.4918 24.8281 10.6708 22.1187 10.6708C20.805 10.6708 19.594 10.9376 18.5266 11.4713C17.4388 12.005 16.5356 12.7439 15.7967 13.6881L15.5093 14.0781V13.7292V11.0813H10.111V31.8536H15.5504V20.7901V21.5496C15.5504 21.4264 15.5504 21.3033 15.5504 21.1801C15.6119 19.2301 16.084 17.7933 16.9872 16.8697C17.9519 15.8844 19.1219 15.3918 20.4561 15.3918C22.0366 15.3918 23.2476 15.8844 24.0481 16.8286C24.8281 17.7728 25.2386 19.107 25.2386 20.8106V20.8722V31.8536H30.7601V20.0717C30.7806 17.116 30.0007 14.776 28.4817 13.1339ZM66.2495 21.447C66.2495 19.9486 65.9827 18.5528 65.4695 17.2391C64.9359 15.946 64.1969 14.7965 63.2733 13.8113C62.3291 12.826 61.2001 12.0666 59.8865 11.5124C58.5728 10.9582 57.1155 10.6913 55.535 10.6913C54.0366 10.6913 52.6203 10.9787 51.3066 11.5329C49.993 12.1076 48.8435 12.8671 47.8788 13.8318C46.9141 14.7965 46.1341 15.946 45.5799 17.2597C45.0051 18.5733 44.7383 19.9896 44.7383 21.488C44.7383 22.9864 45.0051 24.4027 45.5388 25.7164C46.0725 27.03 46.832 28.1795 47.7762 29.1442C48.7203 30.1089 49.8903 30.8889 51.245 31.4431C52.5998 32.0178 54.0981 32.3052 55.6992 32.3052C60.338 32.3052 63.2117 30.191 64.9359 28.2205L60.9949 25.2237C60.1738 26.209 58.2033 27.5432 55.7402 27.5432C54.2008 27.5432 52.9282 27.1942 51.9635 26.4758C50.9987 25.7779 50.3419 24.7927 49.993 23.5817L49.9314 23.3969H66.2495V21.447ZM49.9724 19.538C49.9724 18.0191 51.7171 15.3713 55.4734 15.3507C59.2296 15.3507 60.9949 17.9986 60.9949 19.5175L49.9724 19.538ZM80.8024 29.2468C80.6998 29.0005 80.5561 28.7952 80.3714 28.6105C80.1867 28.4258 79.9814 28.2821 79.7351 28.1795C79.4888 28.0768 79.2219 28.0153 78.9551 28.0153C78.6677 28.0153 78.4214 28.0768 78.1751 28.1795C77.9288 28.2821 77.7236 28.4258 77.5388 28.6105C77.3541 28.7952 77.2104 29.0005 77.1078 29.2468C77.0051 29.4931 76.9436 29.76 76.9436 30.0268C76.9436 30.3142 77.0051 30.5605 77.1078 30.8068C77.2104 31.0531 77.3541 31.2584 77.5388 31.4431C77.7236 31.6278 77.9288 31.7715 78.1751 31.8741C78.4214 31.9768 78.6883 32.0384 78.9551 32.0384C79.2425 32.0384 79.4888 31.9768 79.7351 31.8741C79.9814 31.7715 80.1867 31.6278 80.3714 31.4431C80.5561 31.2584 80.6998 31.0531 80.8024 30.8068C80.9051 30.5605 80.9667 30.2936 80.9667 30.0268C80.9667 29.76 80.9051 29.4931 80.8024 29.2468ZM80.474 30.6836C80.3919 30.8889 80.2688 31.0736 80.1251 31.2173C79.9814 31.361 79.7967 31.4842 79.5914 31.5663C79.3862 31.6484 79.1809 31.6894 78.9346 31.6894C78.7088 31.6894 78.483 31.6484 78.2777 31.5663C78.0725 31.4842 77.8878 31.361 77.7441 31.2173C77.6004 31.0736 77.4772 30.8889 77.3951 30.6836C77.313 30.4784 77.272 30.2731 77.272 30.0268C77.272 29.801 77.313 29.5752 77.3951 29.37C77.4772 29.1647 77.6004 28.98 77.7441 28.8363C77.8878 28.6926 78.0725 28.5695 78.2777 28.4874C78.483 28.4053 78.6883 28.3642 78.9346 28.3642C79.1604 28.3642 79.3862 28.4053 79.5914 28.4874C79.7967 28.5695 79.9814 28.6926 80.1251 28.8363C80.2688 28.98 80.3919 29.1647 80.474 29.37C80.5561 29.5752 80.5972 29.7805 80.5972 30.0268C80.5972 30.2731 80.5561 30.4784 80.474 30.6836ZM79.3246 30.2115C79.4888 30.191 79.6119 30.1294 79.7146 30.0268C79.8172 29.9242 79.8788 29.7805 79.8788 29.5752C79.8788 29.3495 79.8172 29.1852 79.6735 29.0621C79.5504 28.9389 79.3246 28.8774 79.0577 28.8774H78.1546V31.1968H78.5856V30.2526H78.8935L79.4683 31.1968H79.9198L79.3246 30.2115ZM79.0988 29.8626C79.0372 29.8626 78.9756 29.8626 78.8935 29.8626H78.5856V29.2058H78.8935C78.9551 29.2058 79.0167 29.2058 79.0988 29.2058C79.1604 29.2058 79.2219 29.2263 79.2835 29.2468C79.3451 29.2673 79.3862 29.3084 79.4067 29.3495C79.4477 29.3905 79.4477 29.4521 79.4477 29.5342C79.4477 29.6163 79.4272 29.6779 79.4067 29.7189C79.3656 29.76 79.3246 29.801 79.2835 29.8216C79.2219 29.8421 79.1604 29.8626 79.0988 29.8626Z" fill="white"/>
</g>
<defs>
<clipPath id="clip0_13_25">
<rect width="81.1597" height="32" fill="white" transform="translate(0.320068 0.75676)"/>
</clipPath>
</defs>
</svg>
