<svg width="129" height="23" viewBox="0 0 129 23" fill="none" xmlns="http://www.w3.org/2000/svg">
<g clip-path="url(#clip0_17_5)">
<path d="M23.3821 20.578H13.5644V2.93558H23.3821V20.578Z" fill="#8D8B8B"/>
<path d="M14.1879 11.7568C14.1879 8.17758 15.8637 4.99005 18.4733 2.93559C16.5648 1.43313 14.1567 0.536707 11.5393 0.536707C5.34305 0.536707 0.320068 5.56006 0.320068 11.7568C0.320068 17.9534 5.34305 22.9769 11.5393 22.9769C14.1567 22.9769 16.5648 22.0804 18.4733 20.578C15.8637 18.5235 14.1879 15.336 14.1879 11.7568Z" fill="#5A5758"/>
<path d="M36.2762 18.7094V18.2739H36.1624L36.0318 18.5734L35.9009 18.2739H35.7872V18.7094H35.8673V18.3808L35.9901 18.6641H36.0733L36.1958 18.3802V18.7094H36.2762ZM35.5559 18.7094V18.3482H35.7018V18.2747H35.3309V18.3482H35.4764V18.7094H35.5559Z" fill="white"/>
<path d="M36.6264 11.7568C36.6264 17.9534 31.6033 22.9769 25.4073 22.9769C22.7899 22.9769 20.3816 22.0804 18.4733 20.578C21.0829 18.5235 22.7587 15.336 22.7587 11.7568C22.7587 8.17758 21.0829 4.99005 18.4733 2.93559C20.3816 1.43313 22.7899 0.536707 25.4073 0.536707C31.6033 0.536707 36.6264 5.56006 36.6264 11.7568Z" fill="#C1C0C1"/>
<path d="M59.0352 11.8052C59.0352 10.494 59.8938 9.41708 61.2985 9.41708C62.6412 9.41708 63.5466 10.4471 63.5466 11.8052C63.5466 13.1634 62.6412 14.1936 61.2985 14.1936C59.8938 14.1936 59.0352 13.1166 59.0352 11.8052ZM65.0765 11.8052V8.07447H63.4528V8.97974C62.9376 8.30856 62.1571 7.88709 61.0956 7.88709C59.004 7.88709 57.3649 9.52629 57.3649 11.8052C57.3649 14.0844 59.004 15.7236 61.0956 15.7236C62.1571 15.7236 62.9376 15.3021 63.4528 14.6308V15.5363H65.0765V11.8052ZM119.901 11.8052C119.901 10.494 120.759 9.41708 122.164 9.41708C123.506 9.41708 124.412 10.4471 124.412 11.8052C124.412 13.1634 123.506 14.1936 122.164 14.1936C120.759 14.1936 119.901 13.1166 119.901 11.8052ZM127.758 15.1819V15.2992H127.866C127.891 15.2992 127.91 15.2943 127.925 15.2846C127.94 15.275 127.947 15.2601 127.947 15.2399C127.947 15.2206 127.94 15.2062 127.925 15.1964C127.91 15.1868 127.891 15.1819 127.866 15.1819H127.758ZM127.867 15.0995C127.923 15.0995 127.967 15.1121 127.997 15.1373C128.028 15.1623 128.043 15.1966 128.043 15.2399C128.043 15.2763 128.031 15.3064 128.007 15.3299C127.983 15.3535 127.948 15.368 127.903 15.3733L128.047 15.5394H127.934L127.801 15.3746H127.758V15.5394H127.664V15.0995H127.867ZM127.839 15.6902C127.89 15.6902 127.938 15.6806 127.982 15.6613C128.026 15.6419 128.065 15.6156 128.098 15.5824C128.131 15.5492 128.157 15.5101 128.176 15.4651C128.195 15.4202 128.205 15.3723 128.205 15.3211C128.205 15.2702 128.195 15.2221 128.176 15.1773C128.157 15.1324 128.131 15.0933 128.098 15.06C128.065 15.0267 128.026 15.0007 127.982 14.9817C127.938 14.9627 127.89 14.9533 127.839 14.9533C127.787 14.9533 127.739 14.9627 127.693 14.9817C127.648 15.0007 127.609 15.0267 127.576 15.06C127.542 15.0933 127.516 15.1324 127.497 15.1773C127.478 15.2221 127.469 15.2702 127.469 15.3211C127.469 15.3723 127.478 15.4202 127.497 15.4651C127.516 15.5101 127.542 15.5492 127.576 15.5824C127.609 15.6156 127.648 15.6419 127.693 15.6613C127.739 15.6806 127.787 15.6902 127.839 15.6902ZM127.839 14.8477C127.906 14.8477 127.968 14.8601 128.026 14.8848C128.085 14.9095 128.136 14.9433 128.18 14.9863C128.223 15.0293 128.258 15.0796 128.283 15.1373C128.308 15.1949 128.321 15.2562 128.321 15.3211C128.321 15.3861 128.308 15.4474 128.283 15.5046C128.258 15.5618 128.223 15.612 128.18 15.6549C128.136 15.6978 128.085 15.7319 128.026 15.757C127.968 15.7822 127.906 15.7948 127.839 15.7948C127.771 15.7948 127.707 15.7822 127.648 15.757C127.589 15.7319 127.538 15.6978 127.494 15.6549C127.451 15.612 127.417 15.5618 127.392 15.5046C127.367 15.4474 127.354 15.3861 127.354 15.3211C127.354 15.2562 127.367 15.1949 127.392 15.1373C127.417 15.0796 127.451 15.0293 127.494 14.9863C127.538 14.9433 127.589 14.9095 127.648 14.8848C127.707 14.8601 127.771 14.8477 127.839 14.8477ZM125.942 11.8052V5.07721H124.318V8.97974C123.803 8.30856 123.023 7.88709 121.961 7.88709C119.869 7.88709 118.23 9.52629 118.23 11.8052C118.23 14.0844 119.869 15.7236 121.961 15.7236C123.023 15.7236 123.803 15.3021 124.318 14.6308V15.5363H125.942V11.8052ZM85.2138 9.33891C86.2597 9.33891 86.9311 9.9945 87.1028 11.1497H83.2316C83.403 10.0725 84.0587 9.33891 85.2138 9.33891ZM85.2453 7.88709C83.0598 7.88709 81.5299 9.47929 81.5299 11.8052C81.5299 14.1782 83.1222 15.7236 85.3543 15.7236C86.4785 15.7236 87.5086 15.4425 88.414 14.6777L87.618 13.4756C86.9934 13.9751 86.1974 14.2561 85.4482 14.2561C84.4022 14.2561 83.45 13.7723 83.2157 12.4297H88.7574C88.773 12.2268 88.7886 12.0239 88.7886 11.8052C88.773 9.47929 87.3369 7.88709 85.2453 7.88709ZM104.836 11.8052C104.836 10.494 105.695 9.41708 107.1 9.41708C108.442 9.41708 109.348 10.4471 109.348 11.8052C109.348 13.1634 108.442 14.1936 107.1 14.1936C105.695 14.1936 104.836 13.1166 104.836 11.8052ZM110.878 11.8052V8.07447H109.254V8.97974C108.739 8.30856 107.958 7.88709 106.897 7.88709C104.805 7.88709 103.166 9.52629 103.166 11.8052C103.166 14.0844 104.805 15.7236 106.897 15.7236C107.958 15.7236 108.739 15.3021 109.254 14.6308V15.5363H110.878V11.8052ZM95.6728 11.8052C95.6728 14.0689 97.2498 15.7236 99.6537 15.7236C100.778 15.7236 101.527 15.4738 102.339 14.8338L101.558 13.5224C100.949 13.9596 100.309 14.1936 99.6066 14.1936C98.311 14.1782 97.3589 13.2415 97.3589 11.8052C97.3589 10.3692 98.311 9.43254 99.6066 9.41708C100.309 9.41708 100.949 9.65105 101.558 10.0883L102.339 8.77694C101.527 8.1369 100.778 7.88709 99.6537 7.88709C97.2498 7.88709 95.6728 9.54174 95.6728 11.8052ZM116.591 7.88709C115.654 7.88709 115.045 8.32427 114.624 8.97974V8.07447H113.016V15.5363H114.64V11.3526C114.64 10.1194 115.17 9.43253 116.232 9.43253C116.56 9.43253 116.903 9.47928 117.247 9.61988L117.746 8.09005C117.387 7.94955 116.919 7.88709 116.591 7.88709ZM73.1001 8.66773C72.3194 8.15248 71.2426 7.88709 70.0561 7.88709C68.1671 7.88709 66.9497 8.79252 66.9497 10.2755C66.9497 11.4931 67.8551 12.2424 69.5253 12.4767L70.2901 12.5859C71.18 12.7106 71.6016 12.9448 71.6016 13.3664C71.6016 13.9439 71.0082 14.2718 69.8999 14.2718C68.7761 14.2718 67.9642 13.9126 67.4178 13.4913L66.653 14.7556C67.5428 15.4113 68.667 15.7236 69.8843 15.7236C72.0386 15.7236 73.2875 14.7089 73.2875 13.2883C73.2875 11.977 72.3041 11.2901 70.6803 11.056L69.9158 10.9467C69.213 10.8531 68.6511 10.7127 68.6511 10.2132C68.6511 9.66663 69.1818 9.33891 70.0717 9.33891C71.0238 9.33891 71.9451 9.69792 72.3976 9.97892L73.1001 8.66773ZM94.034 7.88709C93.0974 7.88709 92.4884 8.32427 92.0671 8.97974V8.07447H90.4592V15.5363H92.0823V11.3526C92.0823 10.1194 92.6134 9.43253 93.675 9.43253C94.0025 9.43253 94.346 9.47928 94.6894 9.61988L95.189 8.09005C94.83 7.94955 94.3616 7.88709 94.034 7.88709ZM80.1872 8.07447H77.5336V5.81098H75.8946V8.07447H74.3802V9.55745H75.8946V12.9605C75.8946 14.6933 76.5656 15.7236 78.4858 15.7236C79.1883 15.7236 79.9999 15.505 80.5151 15.146L80.0469 13.7566C79.5629 14.0376 79.0321 14.1782 78.6108 14.1782C77.7989 14.1782 77.5336 13.6785 77.5336 12.9293V9.55745H80.1872V8.07447ZM55.9285 15.5363V10.8531C55.9285 9.08908 54.8046 7.90268 52.9938 7.88709C52.0416 7.87151 51.0583 8.16806 50.3714 9.21399C49.8562 8.38673 49.0443 7.88709 47.9049 7.88709C47.1085 7.88709 46.3281 8.12122 45.7194 8.99545V8.07447H44.0959V15.5363H45.735V11.3993C45.735 10.1037 46.4531 9.41708 47.5614 9.41708C48.6385 9.41708 49.1849 10.1194 49.1849 11.3839V15.5363H50.8239V11.3993C50.8239 10.1037 51.5732 9.41708 52.6503 9.41708C53.7586 9.41708 54.2894 10.1194 54.2894 11.3839V15.5363H55.9285Z" fill="white"/>
</g>
<defs>
<clipPath id="clip0_17_5">
<rect width="128" height="22.4401" fill="white" transform="translate(0.320068 0.536682)"/>
</clipPath>
</defs>
</svg>
