<svg width="129" height="28" viewBox="0 0 129 28" fill="none" xmlns="http://www.w3.org/2000/svg">
<g clip-path="url(#clip0_19_56)">
<path d="M53.5523 5.56718V21.9463H50.7087V9.09325H50.6708L45.5902 21.9463H43.6945L38.5002 9.09325H38.4623V21.9463H35.8461V5.56718H39.9409L44.6424 17.6999H44.7182L49.685 5.56718H53.5523ZM55.903 6.81837C55.903 6.36339 56.0547 5.98424 56.3959 5.68093C56.7371 5.37761 57.1163 5.22595 57.5713 5.22595C58.0642 5.22595 58.4812 5.37761 58.7845 5.68093C59.0879 5.98424 59.2774 6.36339 59.2774 6.81837C59.2774 7.27334 59.1258 7.65249 58.7845 7.95581C58.4433 8.25913 58.0642 8.41078 57.5713 8.41078C57.0784 8.41078 56.6992 8.25913 56.3959 7.95581C56.0926 7.61458 55.903 7.23543 55.903 6.81837ZM58.9741 10.1928V21.9463H56.2063V10.1928H58.9741ZM67.3533 19.9369C67.7703 19.9369 68.2253 19.861 68.7182 19.6335C69.2111 19.444 69.6661 19.1786 70.0831 18.8752V21.4534C69.6281 21.7188 69.1353 21.9084 68.5665 22.0222C67.9978 22.1359 67.3912 22.2117 66.7087 22.2117C64.9646 22.2117 63.5618 21.6809 62.5002 20.5814C61.4007 19.4819 60.8698 18.079 60.8698 16.4108C60.8698 14.5151 61.4386 12.9605 62.5381 11.7473C63.6376 10.534 65.1921 9.92737 67.2395 9.92737C67.7703 9.92737 68.3011 10.0032 68.794 10.1169C69.3248 10.2307 69.7419 10.4203 70.0452 10.5719V13.226C69.6281 12.9226 69.1732 12.6572 68.7561 12.5056C68.3011 12.3539 67.8461 12.2402 67.3912 12.2402C66.2916 12.2402 65.4196 12.5814 64.7371 13.3018C64.0547 14.0222 63.7514 14.97 63.7514 16.1833C63.7514 17.3587 64.0926 18.3065 64.7371 18.9511C65.3817 19.5956 66.2537 19.9369 67.3533 19.9369ZM77.9315 10.0032C78.1589 10.0032 78.3485 10.0032 78.5381 10.0411C78.7277 10.079 78.8793 10.1169 78.9931 10.1549V12.9605C78.8414 12.8468 78.6518 12.7331 78.3485 12.6572C78.0452 12.5814 77.7419 12.5056 77.3248 12.5056C76.6424 12.5056 76.0736 12.8089 75.6187 13.3776C75.1637 13.9463 74.8983 14.8184 74.8983 16.0316V21.9463H72.1305V10.1928H74.8983V12.0506H74.9362C75.2016 11.406 75.5807 10.9132 76.0736 10.534C76.6044 10.1928 77.2111 10.0032 77.9315 10.0032ZM79.1447 16.2591C79.1447 14.3255 79.7134 12.771 80.7751 11.6335C81.8746 10.4961 83.3912 9.92737 85.3248 9.92737C87.1447 9.92737 88.5855 10.4582 89.6092 11.5577C90.6329 12.6572 91.1637 14.1359 91.1637 15.9937C91.1637 17.8895 90.595 19.406 89.5334 20.5435C88.4338 21.6809 86.9552 22.2496 85.0594 22.2496C83.2395 22.2496 81.7988 21.7188 80.7371 20.6572C79.6755 19.5577 79.1447 18.079 79.1447 16.2591ZM82.0262 16.1454C82.0262 17.3587 82.2916 18.3065 82.8604 18.9511C83.4291 19.5956 84.2253 19.9369 85.249 19.9369C86.2348 19.9369 87.031 19.6335 87.5618 18.9511C88.0926 18.3065 88.358 17.3587 88.358 16.0696C88.358 14.8184 88.0926 13.8705 87.5618 13.188C87.031 12.5435 86.2348 12.2023 85.2869 12.2023C84.2632 12.2023 83.5049 12.5435 82.9362 13.226C82.2916 13.9463 82.0262 14.8942 82.0262 16.1454ZM95.2964 13.3018C95.2964 13.6809 95.4101 14.0222 95.6755 14.2496C95.9409 14.4771 96.4717 14.7425 97.3438 15.0838C98.4433 15.5387 99.2395 16.0316 99.6566 16.5624C100.112 17.1312 100.339 17.7757 100.339 18.5719C100.339 19.6714 99.922 20.5435 99.0499 21.226C98.2158 21.9084 97.0405 22.2117 95.5997 22.2117C95.1068 22.2117 94.576 22.1359 93.9694 22.0222C93.3627 21.9084 92.8699 21.7568 92.4528 21.5672V18.8373C92.9457 19.1786 93.5144 19.4819 94.0831 19.6714C94.6518 19.861 95.1826 19.9748 95.6755 19.9748C96.2822 19.9748 96.7751 19.8989 97.0405 19.7094C97.3438 19.5198 97.4954 19.2544 97.4954 18.8373C97.4954 18.4582 97.3438 18.1549 97.0405 17.8515C96.7372 17.5861 96.1305 17.2828 95.2964 16.9416C94.2727 16.5245 93.5523 16.0316 93.1353 15.5008C92.7182 14.97 92.4907 14.2876 92.4907 13.4534C92.4907 12.3918 92.9078 11.5198 93.7419 10.8373C94.576 10.1549 95.6755 9.81363 97.0026 9.81363C97.4196 9.81363 97.8746 9.85154 98.3675 9.96529C98.8604 10.079 99.3153 10.1928 99.6566 10.3065V12.9985C99.2774 12.771 98.8604 12.5435 98.3675 12.3539C97.8746 12.1643 97.3817 12.0885 96.9267 12.0885C96.3959 12.0885 95.9789 12.2023 95.7135 12.3918C95.4481 12.6572 95.2964 12.9226 95.2964 13.3018ZM101.514 16.2591C101.514 14.3255 102.083 12.771 103.145 11.6335C104.244 10.4961 105.761 9.92737 107.695 9.92737C109.514 9.92737 110.955 10.4582 111.979 11.5577C113.003 12.6572 113.533 14.1359 113.533 15.9937C113.533 17.8895 112.965 19.406 111.903 20.5435C110.803 21.6809 109.325 22.2496 107.429 22.2496C105.609 22.2496 104.168 21.7188 103.107 20.6572C102.083 19.5577 101.514 18.079 101.514 16.2591ZM104.396 16.1454C104.396 17.3587 104.661 18.3065 105.23 18.9511C105.799 19.5956 106.595 19.9369 107.619 19.9369C108.604 19.9369 109.401 19.6335 109.931 18.9511C110.462 18.3065 110.728 17.3587 110.728 16.0696C110.728 14.8184 110.462 13.8705 109.931 13.188C109.401 12.5435 108.604 12.2023 107.657 12.2023C106.633 12.2023 105.875 12.5435 105.306 13.226C104.699 13.9463 104.396 14.8942 104.396 16.1454ZM122.747 12.4677H118.614V21.9463H115.808V12.4677H113.837V10.1928H115.808V8.56244C115.808 7.34917 116.225 6.32548 117.022 5.52927C117.818 4.73306 118.841 4.35391 120.093 4.35391C120.434 4.35391 120.737 4.39183 121.003 4.39183C121.268 4.39183 121.495 4.46766 121.685 4.54349V6.93211C121.609 6.8942 121.42 6.81837 121.192 6.74254C120.965 6.66671 120.699 6.62879 120.396 6.62879C119.827 6.62879 119.372 6.81837 119.069 7.1596C118.766 7.50083 118.614 8.06955 118.614 8.75202V10.1549H122.747V7.50083L125.514 6.66671V10.1549H128.32V12.4297H125.514V17.9274C125.514 18.6478 125.666 19.1406 125.894 19.444C126.159 19.7473 126.576 19.8989 127.145 19.8989C127.296 19.8989 127.486 19.861 127.713 19.7852C127.941 19.7094 128.131 19.6335 128.282 19.5198V21.7947C128.093 21.9084 127.827 21.9842 127.41 22.0601C126.993 22.1359 126.614 22.1738 126.197 22.1738C125.022 22.1738 124.149 21.8705 123.581 21.2639C123.012 20.6572 122.709 19.7094 122.709 18.4582L122.747 12.4677Z" fill="white"/>
<path d="M13.2869 0.107468H0.320068V13.0743H13.2869V0.107468Z" fill="#8A8A8A"/>
<path d="M27.6187 0.107468H14.6519V13.0743H27.6187V0.107468Z" fill="#5D5D5D"/>
<path d="M13.2869 14.4392H0.320091V27.406H13.2869V14.4392Z" fill="#787878"/>
<path d="M27.6187 14.4392H14.6519V27.406H27.6187V14.4392Z" fill="#808080"/>
</g>
<defs>
<clipPath id="clip0_19_56">
<rect width="128" height="27.2986" fill="white" transform="translate(0.320068 0.107468)"/>
</clipPath>
</defs>
</svg>
