<svg width="128" height="29" viewBox="0 0 128 29" fill="none" xmlns="http://www.w3.org/2000/svg">
<g clip-path="url(#clip0_54_42)">
<path fill-rule="evenodd" clip-rule="evenodd" d="M52.2482 22.2471L46.2286 13.2176V22.2471H43.5532V9.1544H46.6467L52.3319 17.6989V9.1544H55.0072V22.2471H52.2482ZM56.6011 17.7992C56.6011 15.1406 58.7915 13.1173 61.5003 13.1173C64.1925 13.1173 66.3495 15.0904 66.3495 17.7491C66.3495 20.4411 64.1589 22.4477 61.4669 22.4477C58.758 22.4477 56.6011 20.4913 56.6011 17.7992ZM59.2764 17.7658C59.2764 19.1202 60.2629 20.0566 61.4835 20.0566C62.7042 20.0566 63.674 19.1202 63.674 17.7658C63.674 16.4281 62.6876 15.4917 61.4669 15.4917C60.2462 15.4917 59.2764 16.4281 59.2764 17.7658ZM72.7449 13.318V15.8763C72.3938 15.8094 72.0259 15.8094 71.9087 15.8094C70.6546 15.8094 69.7852 16.6789 69.7852 18.3343V22.2471H67.2269V13.318H69.7016V14.6222H69.735C70.2199 13.6022 71.1229 13.2176 72.0425 13.2176C72.2432 13.2176 72.5608 13.2678 72.7449 13.318ZM80.2791 22.2471V21.1101H80.2457C79.4095 22.3307 78.0718 22.4143 77.4699 22.4143C74.8781 22.4143 73.2228 20.1737 73.2228 17.7658C73.2228 15.5084 74.945 13.1508 77.5033 13.1508C78.0216 13.1508 79.2591 13.2511 80.1787 14.3379H80.2121V8.63603H82.804V22.2471H80.2791ZM80.2791 17.7658C80.2791 16.4281 79.2925 15.5084 78.0718 15.5084C76.8512 15.5084 75.8647 16.4281 75.8647 17.7658C75.8647 19.1202 76.8512 20.0566 78.0718 20.0566C79.2925 20.0566 80.2791 19.1202 80.2791 17.7658Z" fill="white"/>
<path fill-rule="evenodd" clip-rule="evenodd" d="M95.424 12.9419C95.424 15.9869 93.2766 17.4478 90.3901 17.4478H88.2251V22.3058H85.3737V8.52399H90.4957C93.259 8.52399 95.424 10.0201 95.424 12.9419ZM92.555 13.0123C92.555 11.6746 91.4286 11.217 90.2493 11.217H88.2251V14.79H90.2667C91.3933 14.79 92.555 14.2972 92.555 13.0123ZM99.5426 22.4818C97.9057 22.4818 96.4272 21.4257 96.4272 19.6831V19.6128C96.4272 17.3598 98.733 16.7261 100.564 16.7261H101.479C101.989 16.7261 102.218 16.4621 102.218 16.0749C102.218 15.4765 101.725 14.9132 100.739 14.9132C99.8947 14.9132 99.261 15.4061 99.0499 16.1981L96.6385 15.6525C96.9553 13.6459 98.8915 12.6955 100.863 12.6955C103.204 12.6955 104.911 13.9452 104.911 16.4797V22.3058H102.377V21.1441L102.341 21.1265C101.637 22.1297 100.564 22.4818 99.5426 22.4818ZM100.335 20.4752C101.549 20.4752 102.201 19.6128 102.201 18.6623V18.4512H100.564C100 18.4512 99.1907 18.7854 99.1907 19.5247C99.1907 20.1936 99.7539 20.4752 100.335 20.4752ZM110.719 22.5169C107.956 22.5169 106.918 20.7392 106.759 19.736L109.153 19.1023C109.276 19.7888 109.804 20.3873 110.719 20.3873C111.529 20.3873 111.846 19.9296 111.846 19.5776C111.846 18.9791 111.336 18.8031 110.35 18.6623C108.572 18.4159 106.953 17.8175 106.953 15.6877C106.953 13.9804 108.678 12.6779 110.667 12.6779C113.113 12.6779 114.187 14.2444 114.38 15.3005L112.004 15.8989C111.864 15.2652 111.423 14.79 110.631 14.79C109.963 14.79 109.558 15.142 109.558 15.5645C109.558 16.1277 110.015 16.2861 111.019 16.3917C112.832 16.6029 114.539 17.2366 114.539 19.4015C114.539 21.0032 113.289 22.5169 110.719 22.5169ZM119.925 22.5169C117.162 22.5169 116.123 20.7392 115.965 19.736L118.358 19.1023C118.482 19.7888 119.01 20.3873 119.925 20.3873C120.735 20.3873 121.051 19.9296 121.051 19.5776C121.051 18.9791 120.541 18.8031 119.555 18.6623C117.778 18.4159 116.158 17.8175 116.158 15.6877C116.158 13.9804 117.883 12.6779 119.872 12.6779C122.319 12.6779 123.392 14.2444 123.586 15.3005L121.21 15.8989C121.069 15.2652 120.629 14.79 119.837 14.79C119.168 14.79 118.763 15.142 118.763 15.5645C118.763 16.1277 119.221 16.2861 120.224 16.3917C122.037 16.6029 123.744 17.2366 123.744 19.4015C123.744 21.0032 122.495 22.5169 119.925 22.5169Z" fill="white"/>
<path fill-rule="evenodd" clip-rule="evenodd" d="M3.43167 28.4076C1.37763 25.5736 0.16626 22.0867 0.16626 18.3163C0.16626 8.82215 7.84731 1.12561 17.3224 1.12561C26.7974 1.12561 34.4786 8.82215 34.4786 18.3163C34.4786 22.0867 33.2671 25.5736 31.2131 28.4076L22.973 14.9995L22.1773 16.3458L22.9847 20.0897L17.3224 10.3821L13.8197 16.308L14.6351 20.0897L11.6672 15.0072L3.43167 28.4076Z" fill="white"/>
<path d="M125.921 14.0596C126.78 14.0596 127.475 13.3644 127.475 12.5053C127.475 11.6519 126.78 10.951 125.921 10.951C125.062 10.951 124.372 11.6519 124.372 12.5053C124.372 13.3644 125.062 14.0596 125.921 14.0596ZM125.921 11.2336C126.611 11.2336 127.181 11.7988 127.181 12.5053C127.181 13.2118 126.611 13.777 125.921 13.777C125.226 13.777 124.666 13.2118 124.666 12.5053C124.666 11.7988 125.226 11.2336 125.921 11.2336ZM125.689 12.754H125.961L126.283 13.3927H126.684L126.317 12.6862C126.515 12.607 126.656 12.4431 126.656 12.1775C126.656 11.7988 126.368 11.6179 126.023 11.6179H125.322V13.3927H125.689V12.754ZM126.283 12.1888C126.283 12.3527 126.136 12.4092 126 12.4092H125.689V11.9684H125.995C126.136 11.9684 126.283 12.0136 126.283 12.1888Z" fill="white"/>
</g>
<defs>
<clipPath id="clip0_54_42">
<rect width="128" height="28.2597" fill="white" transform="translate(0 0.626892)"/>
</clipPath>
</defs>
</svg>
