<svg width="129" height="35" viewBox="0 0 129 35" fill="none" xmlns="http://www.w3.org/2000/svg">
<g clip-path="url(#clip0_13_52)">
<path d="M41.2501 7.57567C40.9867 7.57567 40.7629 7.76691 40.7217 8.02732L37.6724 27.3653C37.6613 27.4359 37.6657 27.5081 37.6851 27.5769C37.7046 27.6457 37.7388 27.7094 37.7853 27.7638C37.8317 27.8181 37.8894 27.8618 37.9544 27.8917C38.0193 27.9216 38.09 27.9371 38.1615 27.9371H41.7777C42.0408 27.9371 42.2649 27.7455 42.3061 27.4854L43.2018 21.8067C43.2427 21.5467 43.4668 21.3551 43.7302 21.3551H47.018C50.8595 21.3551 54.1205 18.5522 54.7162 14.7541C55.3167 10.9239 52.3245 7.58398 48.0835 7.57567H41.2501ZM44.7654 11.8926H47.396C49.5616 11.8926 50.2669 13.1705 50.0439 14.5837C49.8209 15.9998 48.7256 17.043 46.6306 17.043H43.9532L44.7654 11.8926ZM62.0711 13.2072C61.158 13.2106 60.1073 13.3976 58.9277 13.889C56.2219 15.0168 54.9225 17.3476 54.3707 19.0469C54.3707 19.0469 52.6144 24.2313 56.5825 27.0795C56.5825 27.0795 60.2626 29.8216 64.4053 26.9106L64.3339 27.3653C64.3228 27.4358 64.3272 27.508 64.3466 27.5767C64.3661 27.6455 64.4001 27.7092 64.4465 27.7635C64.4929 27.8178 64.5505 27.8615 64.6154 27.8914C64.6802 27.9214 64.7508 27.937 64.8222 27.9371H68.2552C68.5186 27.9371 68.7423 27.7455 68.7835 27.4854L70.8717 14.2427C70.8829 14.1721 70.8787 14.0999 70.8593 14.0311C70.8399 13.9622 70.8058 13.8984 70.7594 13.844C70.713 13.7896 70.6554 13.7459 70.5905 13.7159C70.5256 13.6858 70.4549 13.6703 70.3834 13.6702H66.9505C66.6871 13.6702 66.4629 13.8618 66.4221 14.1218L66.3099 14.8346C66.3099 14.8346 64.8109 13.197 62.0711 13.2072ZM62.1834 17.39C62.5776 17.39 62.9381 17.4444 63.2617 17.5483C64.7429 18.0238 65.5827 19.4468 65.3396 20.9892C65.0399 22.8884 63.4824 24.2868 61.4849 24.2868C61.0911 24.2868 60.7305 24.2328 60.4066 24.1288C58.9258 23.6534 58.0807 22.2304 58.3237 20.688C58.6234 18.7888 60.1859 17.39 62.1834 17.39Z" fill="white"/>
<path d="M90.6863 7.57567C90.4228 7.57567 90.1991 7.76691 90.1579 8.02732L87.1086 27.3653C87.0975 27.4359 87.1019 27.5081 87.1213 27.5769C87.1408 27.6457 87.175 27.7094 87.2215 27.7638C87.2679 27.8181 87.3256 27.8618 87.3906 27.8917C87.4555 27.9216 87.5262 27.9371 87.5977 27.9371H91.2139C91.477 27.9371 91.7011 27.7455 91.7423 27.4854L92.638 21.8067C92.6788 21.5467 92.903 21.3551 93.1664 21.3551H96.4542C100.296 21.3551 103.556 18.5522 104.152 14.7541C104.753 10.9239 101.761 7.58398 97.5197 7.57567H90.6863ZM94.2016 11.8926H96.8322C98.9978 11.8926 99.7031 13.1705 99.4801 14.5837C99.2571 15.9998 98.1622 17.043 96.0668 17.043H93.3894L94.2016 11.8926ZM111.507 13.2072C110.594 13.2106 109.543 13.3976 108.363 13.889C105.658 15.0168 104.358 17.3476 103.807 19.0469C103.807 19.0469 102.051 24.2313 106.019 27.0795C106.019 27.0795 109.698 29.8216 113.842 26.9106L113.77 27.3653C113.759 27.4359 113.763 27.5081 113.783 27.5769C113.802 27.6457 113.836 27.7094 113.883 27.7638C113.929 27.8181 113.987 27.8618 114.052 27.8917C114.117 27.9216 114.188 27.9371 114.259 27.9371H117.692C117.955 27.9371 118.179 27.7455 118.22 27.4854L120.309 14.2427C120.32 14.1721 120.316 14.0998 120.297 14.0309C120.277 13.962 120.243 13.8981 120.197 13.8437C120.15 13.7893 120.092 13.7456 120.027 13.7156C119.962 13.6857 119.892 13.6701 119.82 13.6702H116.387C116.124 13.6702 115.899 13.8618 115.859 14.1218L115.746 14.8346C115.746 14.8346 114.247 13.197 111.507 13.2072ZM111.619 17.39C112.013 17.39 112.374 17.4444 112.697 17.5483C114.179 18.0238 115.018 19.4468 114.775 20.9892C114.476 22.8884 112.918 24.2868 110.921 24.2868C110.527 24.2868 110.166 24.2328 109.842 24.1288C108.362 23.6534 107.517 22.2304 107.76 20.688C108.059 18.7888 109.622 17.39 111.619 17.39Z" fill="white"/>
<path d="M72.5007 13.6701C72.2286 13.6701 72.035 13.9358 72.1182 14.1947L75.8819 25.8739L72.4788 31.3776C72.3136 31.6448 72.5056 31.9899 72.8197 31.9899H76.8418C76.9569 31.9898 77.0699 31.96 77.1701 31.9035C77.2703 31.8469 77.3542 31.7655 77.4137 31.6671L87.9249 14.2787C88.0863 14.0114 87.8936 13.6698 87.5814 13.6698H83.5596C83.4434 13.6699 83.3293 13.7002 83.2284 13.7578C83.1276 13.8154 83.0435 13.8982 82.9843 13.9982L78.8469 20.9835L76.7466 14.05C76.6782 13.8244 76.4699 13.6698 76.2345 13.6698L72.5007 13.6701Z" fill="white"/>
<path d="M124.209 7.57567C123.946 7.57567 123.722 7.76729 123.681 8.02732L120.631 27.3645C120.62 27.4352 120.624 27.5075 120.644 27.5764C120.663 27.6453 120.697 27.7091 120.744 27.7635C120.79 27.818 120.848 27.8617 120.913 27.8916C120.978 27.9216 121.049 27.9371 121.12 27.9371H124.736C124.999 27.9371 125.224 27.7455 125.265 27.4854L128.314 8.14751C128.325 8.07693 128.321 8.0048 128.301 7.93606C128.282 7.86731 128.248 7.80359 128.201 7.74926C128.155 7.69494 128.097 7.65129 128.033 7.62133C127.968 7.59136 127.897 7.57579 127.826 7.57567H124.209Z" fill="white"/>
<path d="M11.1023 7.57567C10.8693 7.57586 10.6441 7.65912 10.467 7.81049C10.29 7.96186 10.1727 8.17141 10.1362 8.40149L8.5311 18.582C8.60593 18.1066 9.01562 17.7562 9.49713 17.7562H14.2008C18.9346 17.7562 22.9515 14.3028 23.6855 9.62304C23.7401 9.27365 23.771 8.92097 23.7781 8.56742C22.5751 7.93661 21.1619 7.57567 19.6134 7.57567H11.1023Z" fill="#323232"/>
<path d="M23.7781 8.56779C23.771 8.92135 23.7401 9.27403 23.6855 9.62342C22.9515 14.3032 18.9342 17.7566 14.2008 17.7566H9.49713C9.016 17.7566 8.60593 18.1066 8.53109 18.5824L7.05518 27.9375L6.13071 33.8063C6.11267 33.9197 6.11943 34.0357 6.15055 34.1462C6.18167 34.2567 6.23641 34.3591 6.31097 34.4465C6.38553 34.5338 6.47814 34.6039 6.58242 34.6519C6.68669 34.7 6.80016 34.7248 6.91497 34.7247H12.0203C12.2533 34.7246 12.4785 34.6413 12.6556 34.4899C12.8327 34.3386 12.95 34.129 12.9864 33.8989L14.3311 25.3697C14.3676 25.1395 14.485 24.9298 14.6622 24.7784C14.8394 24.627 15.0649 24.5439 15.298 24.5438H18.3038C23.0377 24.5438 27.0545 21.0905 27.7885 16.4107C28.3097 13.0892 26.6369 10.0668 23.7781 8.56779Z" fill="#707070"/>
<path d="M5.30227 0.789749C4.82114 0.789749 4.41107 1.13973 4.33624 1.61482L0.329928 27.0193C0.25396 27.5015 0.626631 27.9377 1.11495 27.9377H7.05598L8.53113 18.5826L10.1363 8.40209C10.1727 8.172 10.29 7.96245 10.4671 7.81108C10.6441 7.65972 10.8694 7.57646 11.1023 7.57626H19.6134C21.1623 7.57626 22.5751 7.93759 23.7781 8.56801C23.8605 4.30735 20.3448 0.789749 15.5111 0.789749H5.30227Z" fill="#444444"/>
</g>
<defs>
<clipPath id="clip0_13_52">
<rect width="128" height="33.9345" fill="white" transform="translate(0.320068 0.789505)"/>
</clipPath>
</defs>
</svg>
