<svg width="129" height="25" viewBox="0 0 129 25" fill="none" xmlns="http://www.w3.org/2000/svg">
<g clip-path="url(#clip0_13_61)">
<path d="M35.0282 7.74196C35.3713 7.74196 35.6653 8.01966 35.6653 8.37902V20.5485C35.6653 20.8915 35.3549 21.1692 35.0282 21.1692H33.3784C33.068 21.1692 32.7577 20.9242 32.7577 20.5812V19.4541C31.9246 20.6792 30.4871 21.5286 28.3963 21.5286C24.9006 21.5286 22.7444 19.209 22.7444 15.7624V8.34635C22.7444 8.00332 23.0548 7.72563 23.3815 7.72563H25.0313C25.3743 7.72563 25.652 8.00332 25.652 8.34635V15.2887C25.652 17.5265 26.8281 19.013 29.1477 19.013C31.4182 19.013 32.7577 17.4775 32.7577 15.3213V8.34635C32.7577 8.00332 33.068 7.72563 33.3784 7.72563H35.0282M10.6893 0.995667C5.03741 0.995667 0.47998 5.38974 0.47998 11.254C0.47998 17.1345 5.03741 21.5123 10.6893 21.5123C11.653 21.5123 12.5841 21.3816 13.4662 21.1366L14.577 23.9952C14.6913 24.3055 14.92 24.5015 15.3284 24.5015H17.0925C17.5172 24.5015 17.8276 24.2238 17.6316 23.6848L16.1941 19.9441C19.0201 18.1636 20.8986 15.011 20.8986 11.2376C20.8986 5.38974 16.3411 0.995667 10.6893 0.995667ZM15.1324 17.2162L13.8419 13.8675C13.7276 13.5898 13.4989 13.3285 13.0088 13.3285H11.3263C10.9016 13.3285 10.5749 13.6062 10.7709 14.1452L12.4698 18.5393C11.9144 18.6863 11.31 18.7517 10.6893 18.7517C6.55655 18.7517 3.61627 15.501 3.61627 11.254C3.61627 7.0069 6.55655 3.75626 10.6893 3.75626C14.822 3.75626 17.7623 7.0069 17.7623 11.254C17.7623 13.7369 16.7658 15.8604 15.1324 17.2162ZM128.431 20.4832C128.578 20.8262 128.398 21.1529 127.99 21.1529H126.144C125.801 21.1529 125.523 20.9895 125.409 20.6465L121.995 11.4663L118.532 20.6465C118.385 21.0059 118.14 21.1529 117.797 21.1529H116.147C115.804 21.1529 115.559 21.0059 115.412 20.6465L111.916 11.4173L108.47 20.6465C108.323 20.9895 108.078 21.1529 107.735 21.1529H106.003C105.66 21.1529 105.415 20.9895 105.268 20.6465L101.854 11.4173L98.3258 20.6465C98.1788 21.0059 97.9338 21.1529 97.5908 21.1529H95.9409C95.5979 21.1529 95.3529 21.0059 95.2059 20.6465L91.7592 11.4173L88.3126 20.6465C88.1982 20.9895 87.9205 21.1529 87.5775 21.1529H85.7807C85.3559 21.1529 85.1926 20.8099 85.3396 20.4832L90.0114 8.26468C90.1584 7.90531 90.4034 7.72563 90.7464 7.72563H92.7556C93.0987 7.72563 93.3437 7.88898 93.4907 8.26468L96.8557 17.1835L100.188 8.26468C100.335 7.90531 100.58 7.72563 100.923 7.72563H102.9C103.243 7.72563 103.488 7.88898 103.635 8.26468L106.934 17.1835L110.234 8.26468C110.381 7.90531 110.626 7.72563 110.969 7.72563H112.962C113.305 7.72563 113.55 7.88898 113.697 8.26468L117.046 17.1835L120.313 8.26468C120.46 7.90531 120.705 7.72563 121.048 7.72563H123.057C123.4 7.72563 123.645 7.88898 123.792 8.26468L128.431 20.4832ZM51.0201 7.74196H49.3702C49.0272 7.74196 48.7332 8.01966 48.7332 8.37902V9.4898C47.9001 8.23201 46.2666 7.33359 44.3391 7.33359C40.6964 7.33359 37.5765 10.2085 37.5765 14.4066C37.5765 18.6537 40.7128 21.5123 44.3228 21.5123C46.2829 21.5123 47.8674 20.6138 48.7495 19.3561V20.5322C48.7495 20.8752 49.0599 21.1529 49.3866 21.1529H51.0364C51.3794 21.1529 51.6571 20.8752 51.6571 20.5322V8.37902C51.6408 8.01966 51.3631 7.74196 51.0201 7.74196ZM44.6495 18.8333C42.2482 18.8333 40.5331 16.8732 40.5331 14.4393C40.5331 11.9727 42.2319 10.0779 44.6495 10.0779C47.0343 10.0779 48.7658 11.9727 48.7658 14.4393C48.7495 16.8895 47.018 18.8333 44.6495 18.8333ZM70.7036 19.258C71.0629 19.6991 70.7526 20.0421 70.5566 20.1891C69.4131 21.0549 67.894 21.5286 66.2442 21.5286C62.0788 21.5286 59.3018 18.474 59.3018 14.4556C59.3018 10.4372 62.0788 7.34993 66.2442 7.34993C67.894 7.34993 69.3968 7.82364 70.5566 8.68939C70.7526 8.8364 71.0303 9.13043 70.7036 9.62047L69.9195 10.7149C69.6091 11.1396 69.2498 11.0253 68.9394 10.8293C68.2043 10.3882 67.3386 10.0125 66.3422 10.0125C63.9083 10.0125 62.2911 11.9727 62.2911 14.4556C62.2911 16.9385 63.9083 18.8823 66.3422 18.8823C67.3549 18.8823 68.1553 18.4903 68.8904 18.0656C69.2008 17.9022 69.5275 17.7552 69.8705 18.2126L70.7036 19.258ZM78.479 7.36626C74.5586 7.36626 71.4386 10.4372 71.4386 14.4393C71.4386 18.474 74.5749 21.5123 78.479 21.5123C82.3993 21.5123 85.5193 18.4576 85.5193 14.4393C85.5356 10.4536 82.3993 7.36626 78.479 7.36626ZM78.479 18.817C76.0777 18.817 74.3626 16.8895 74.3626 14.4556C74.3626 11.989 76.0614 10.0942 78.479 10.0942C80.8802 10.0942 82.5954 11.989 82.5954 14.4556C82.5954 16.8895 80.8965 18.817 78.479 18.817ZM56.8026 1.35503C57.162 1.35503 57.4233 1.6654 57.4233 1.99209V20.5158C57.4233 20.8589 57.1783 21.1529 56.8026 21.1529H55.1528C54.8097 21.1529 54.5157 20.8425 54.5157 20.5158V2.00843C54.5157 1.6654 54.8261 1.37137 55.1528 1.37137H56.8026" fill="white"/>
</g>
<defs>
<clipPath id="clip0_13_61">
<rect width="128" height="23.5222" fill="white" transform="translate(0.479736 0.995651)"/>
</clipPath>
</defs>
</svg>
