<svg width="129" height="35" viewBox="0 0 129 35" fill="none" xmlns="http://www.w3.org/2000/svg">
<path fill-rule="evenodd" clip-rule="evenodd" d="M2.04932 2.32393V26.5795L22.6077 33.5257L43.1101 26.5795V2.32393H2.04932ZM22.5517 25.7953H16.2778V23.6106H16.2217C14.9894 25.3471 13.2528 26.1874 10.676 26.1874C7.59505 26.1874 4.85019 24.3388 4.85019 20.4176V8.70993H11.3482V17.6727C11.3482 19.6333 11.5723 21.0338 13.4769 21.0338C14.5972 21.0338 16.0537 20.4736 16.0537 17.7287V8.70993H22.5517V25.7953ZM33.9233 12.4071C34.3714 12.6872 34.6515 13.1353 34.7075 13.6955V13.6395H40.6454C40.4773 9.2701 36.0519 8.26179 32.3548 8.26179C28.9377 8.26179 24.2883 9.38214 24.2883 13.6955C24.2883 16.6644 26.2489 18.2329 31.2344 19.0732C34.2594 19.5773 34.8196 19.8574 34.8196 20.8657C34.8196 21.818 33.4751 22.1541 32.6349 22.1541C31.8506 22.1541 31.2344 21.9301 30.8983 21.65C30.3942 21.2018 30.1701 20.7537 30.1141 20.1375H23.8961C24.0082 24.5069 28.3775 26.1314 32.4108 26.1314C36.5561 26.1314 41.0935 24.899 41.0935 20.1375C41.0935 17.3366 39.1889 16.0482 37.0042 15.376C35.8871 15.0323 34.6966 14.8204 33.6577 14.6354C32.665 14.4587 31.8105 14.3066 31.2905 14.0876C30.8983 13.9196 30.5062 13.6955 30.5062 13.1913C30.5062 12.127 31.5705 11.9029 32.4668 11.9029C33.027 11.9029 33.5312 12.071 33.9233 12.4071Z" fill="#808080"/>
<path d="M45.4629 2.32393H51.9609V10.6145H52.0169C53.0253 9.15806 54.7618 8.3178 56.6664 8.3178C62.3802 8.3178 63.9487 13.1913 63.9487 17.1686C63.9487 21.4259 61.5959 26.1874 56.7784 26.1874C53.5854 26.1874 52.5771 24.955 51.7929 23.8907H51.7368V25.7392H45.4629V2.32393ZM54.5937 13.0233C52.241 13.0233 51.7368 15.208 51.7368 17.2246C51.7368 19.2412 52.241 21.4819 54.5937 21.4819C56.9465 21.4819 57.4506 19.2972 57.4506 17.2246C57.4506 15.264 56.8905 13.0233 54.5937 13.0233ZM82.0983 21.9861C82.0983 23.2745 82.1544 24.7309 82.8826 25.7953H76.2165C76.0484 25.3471 75.9364 24.6189 75.9924 24.1708H75.9364C74.536 25.7392 72.5754 26.1874 70.4467 26.1874C67.1417 26.1874 64.4528 24.6189 64.4528 21.0338C64.4528 15.6561 70.7828 15.8241 74.0878 15.208C74.9841 15.0399 75.8804 14.7598 75.8804 13.6955C75.8804 12.5191 74.8161 12.127 73.7517 12.127C71.7351 12.127 71.343 13.1353 71.343 13.8635H65.2931C65.5172 9.04603 70.0546 8.26179 74.0878 8.26179C82.2664 8.26179 82.1544 11.6228 82.1544 14.9279V21.9861H82.0983ZM75.8804 18.1209C75.0961 18.513 74.1999 18.7371 73.3036 18.9611C71.8471 19.2972 71.1189 19.6333 71.1189 20.8097C71.1189 21.594 71.9592 22.3782 73.1355 22.3782C74.592 22.3782 75.7684 21.4819 75.8804 19.6894V18.1209ZM84.4511 8.70992H90.725V10.8946H90.7811C92.0134 9.15806 93.75 8.3178 96.3268 8.3178C99.4077 8.3178 102.209 10.1664 102.209 14.0876V25.7953H95.6546V16.8325C95.6546 14.8719 95.4305 13.4714 93.5259 13.4714C92.4056 13.4714 90.9491 14.0316 90.9491 16.7764V25.7953H84.4511V8.70992ZM104.505 2.32393H111.003V13.6395L115.149 8.70992H122.487L116.381 15.1519L123.439 25.7953H115.597L112.124 19.6333L110.947 20.8657V25.7953H104.449V2.32393H104.505ZM126.352 23.4425C126.576 23.6666 126.744 24.0027 126.744 24.3388C126.744 24.6749 126.632 25.011 126.352 25.2351C126.128 25.4592 125.792 25.6272 125.456 25.6272C125.12 25.6272 124.784 25.5152 124.56 25.2351C124.336 25.011 124.167 24.6749 124.167 24.3388C124.167 24.0027 124.28 23.6666 124.56 23.4425C124.784 23.2185 125.12 23.0504 125.456 23.0504C125.792 23.1064 126.128 23.2185 126.352 23.4425ZM126.52 23.3305C126.24 23.0504 125.904 22.8824 125.456 22.8824C125.064 22.8824 124.728 23.0504 124.392 23.3305C124.111 23.6106 123.943 23.9467 123.943 24.3948C123.943 24.787 124.111 25.1791 124.392 25.4592C124.672 25.7392 125.008 25.9073 125.456 25.9073C125.848 25.9073 126.184 25.7392 126.52 25.4592C126.8 25.1791 126.968 24.843 126.968 24.3948C126.912 23.9467 126.8 23.6106 126.52 23.3305ZM125.68 24.2828C125.624 24.2828 125.512 24.3388 125.4 24.3388H125.12V23.7786H125.344C125.512 23.7786 125.624 23.7786 125.68 23.8347C125.736 23.8907 125.792 23.9467 125.792 24.0587C125.848 24.1708 125.792 24.2268 125.68 24.2828ZM124.84 25.1791H125.12V24.5629H125.344C125.512 24.5629 125.624 24.5629 125.68 24.6189C125.792 24.6749 125.848 24.787 125.848 25.011V25.1791H126.128V24.843C126.128 24.787 126.072 24.6749 126.016 24.6189C125.96 24.5069 125.848 24.5069 125.736 24.4508C125.848 24.4508 125.904 24.3948 125.96 24.3948C126.072 24.3388 126.128 24.2268 126.128 24.0587C126.128 23.8347 126.072 23.7226 125.904 23.6666C125.792 23.6106 125.68 23.6106 125.456 23.6106H124.896V25.1791H124.84Z" fill="white"/>
</svg>
