<svg width="99" height="33" viewBox="0 0 99 33" fill="none" xmlns="http://www.w3.org/2000/svg">
<g clip-path="url(#clip0_19_68)">
<path d="M64.328 0.75676C57.3155 0.75676 51.0487 4.39151 51.0487 11.107C51.0487 18.8084 62.163 19.3403 62.163 23.2092C62.163 24.8383 60.2962 26.2966 57.1076 26.2966C52.5824 26.2966 49.2002 24.2589 49.2002 24.2589L47.753 31.0356C47.753 31.0356 51.6492 32.7568 56.822 32.7568C64.489 32.7568 70.5219 28.9436 70.5219 22.1132C70.5219 13.9754 59.3613 13.4592 59.3613 9.86819C59.3613 8.59206 60.8939 7.19381 64.0733 7.19381C67.6607 7.19381 70.5876 8.67572 70.5876 8.67572L72.0039 2.13061C72.0039 2.13061 68.8192 0.75676 64.328 0.75676ZM0.169802 1.25073L0 2.23867C0 2.23867 2.9502 2.7786 5.60733 3.85565C9.02861 5.0907 9.27233 5.80969 9.84853 8.04282L16.1273 32.2474H24.5441L37.5108 1.25073H29.1134L20.7815 22.3255L17.3816 4.46154C17.0698 2.41702 15.4904 1.25073 13.5572 1.25073H0.169802ZM40.8876 1.25073L34.3 32.2474H42.3078L48.8722 1.25073H40.8876ZM85.5494 1.25073C83.6185 1.25073 82.5954 2.28453 81.8447 4.09106L70.1129 32.2474H78.5104L80.1351 27.5546H90.3657L91.3536 32.2474H98.7631L92.2991 1.25073H85.5494ZM86.6416 9.62507L89.1307 21.2565H82.4621L86.6416 9.62507Z" fill="white"/>
</g>
<defs>
<clipPath id="clip0_19_68">
<rect width="98.76" height="32" fill="white" transform="translate(0 0.75676)"/>
</clipPath>
</defs>
</svg>
