<svg width="129" height="22" viewBox="0 0 129 22" fill="none" xmlns="http://www.w3.org/2000/svg">
<g clip-path="url(#clip0_50_10)">
<mask id="mask0_50_10" style="mask-type:luminance" maskUnits="userSpaceOnUse" x="-416" y="-624" width="805" height="1042">
<path d="M388.799 417.15H-415.575V-623.439H388.799V417.15Z" fill="white"/>
</mask>
<g mask="url(#mask0_50_10)">
<path d="M55.8275 18.7484L50.2998 3.35407C50.2292 3.14125 50.124 2.86028 50.124 2.6138C50.124 1.94671 50.6876 1.31328 51.4952 1.31328C52.2002 1.31328 52.6595 1.7709 52.8698 2.43799L57.4502 15.704L62.0635 2.40434C62.2738 1.77342 62.6969 1.3158 63.3976 1.3158H63.5406C64.2818 1.3158 64.7394 1.77342 64.9497 2.40434L69.5251 15.704L74.1779 2.37069C74.3537 1.80455 74.7381 1.31496 75.4801 1.31496C76.254 1.31496 76.8184 1.91054 76.8184 2.58099C76.8184 2.82663 76.7116 3.10675 76.6426 3.32127L71.0796 18.7492C70.7953 19.5551 70.2342 19.9783 69.5991 19.9783H69.4939C68.789 19.9783 68.2599 19.5551 68.0117 18.7492L63.4717 5.66827L58.8921 18.7492C58.6456 19.5551 58.1156 19.9783 57.4132 19.9783H57.3392C56.6721 19.9783 56.111 19.5551 55.8275 18.7492" fill="white"/>
<path d="M96.1219 2.68107C96.1219 1.93827 96.7209 1.30399 97.4603 1.30399C98.2401 1.30399 98.8374 1.90378 98.8374 2.68107V5.80452C100.177 2.77108 103.147 1.33932 105.115 1.33932C105.931 1.33932 106.46 1.93827 106.46 2.71388C106.46 3.45583 105.968 3.98244 105.257 4.08843C101.728 4.51156 98.8382 7.15888 98.8382 12.4165V18.602C98.8382 19.3431 98.2746 19.9765 97.499 19.9765C96.7226 19.9765 96.1228 19.3742 96.1228 18.602L96.1219 2.6777V2.68107Z" fill="white"/>
<path d="M115.218 20.1785C110.307 20.1785 106.301 16.3703 106.301 10.782V10.7097C106.301 5.50842 109.931 1.32167 114.873 1.32167C120.158 1.32167 123.168 5.68256 123.168 10.4657C123.168 11.201 122.575 11.7267 121.922 11.7267H109.001C109.378 15.6342 112.107 17.8331 115.291 17.8331C117.504 17.8331 119.123 16.9599 120.439 15.7377C120.647 15.5652 120.888 15.4256 121.201 15.4256C121.856 15.4256 122.376 15.9496 122.376 16.5806C122.376 16.8935 122.238 17.2089 121.958 17.4504C120.267 19.0899 118.259 20.1759 115.22 20.1759M120.508 9.73639C120.23 6.45143 118.363 3.59128 114.802 3.59128C111.691 3.59128 109.341 6.20832 108.999 9.73639H120.508Z" fill="white"/>
<path d="M76.9421 14.5423V14.4716C76.9421 10.639 80.1085 8.59655 84.7142 8.59655C87.0368 8.59655 88.6889 8.91285 90.31 9.37299V8.73703C90.31 5.46889 88.2994 3.77804 84.8917 3.77804C83.062 3.77804 81.997 4.01106 80.6578 4.60748C80.4845 4.67815 80.307 4.71432 80.1699 4.71432C79.5365 4.71432 78.9712 4.18519 78.9712 3.55343C78.9712 2.99234 79.216 2.64492 79.7114 2.42536C81.5024 1.64807 82.8525 1.38982 85.1726 1.38982C87.7384 1.38982 89.7085 2.05606 91.0427 3.3936C92.2759 4.62431 92.9093 6.38246 92.9093 8.70506V18.7408C92.9093 19.5122 92.3466 20.0767 91.6038 20.0767C90.8332 20.0767 90.3108 19.5131 90.3108 18.8106V17.076C89.0422 18.7324 86.9299 20.2071 83.7358 20.2071C80.3575 20.2045 76.9421 18.2723 76.9421 14.544M90.3428 13.1366V11.3776C89.0035 10.9915 87.2075 10.6037 84.9935 10.6037C81.5865 10.6037 79.6845 12.0826 79.6845 14.3665V14.4363C79.6845 16.7219 81.7926 18.0586 84.2574 18.0586C87.597 18.0586 90.3428 16.0178 90.3428 13.1366Z" fill="white"/>
<path d="M6.61614 2.51282C6.02056 1.20725 4.54843 0.615874 3.17387 1.2266C1.79764 1.83817 1.29122 3.36414 1.91288 4.67055L7.68449 17.2131C8.59217 19.1791 9.54864 20.2096 11.3438 20.2096C13.2618 20.2096 14.098 19.0874 15.0048 17.2131C15.0048 17.2131 20.0386 6.25205 20.0891 6.13428C20.1404 6.01819 20.3019 5.66403 20.8143 5.6674C21.2475 5.66992 21.6117 6.01566 21.6117 6.48002V17.1972C21.6117 18.8493 22.5278 20.2045 24.291 20.2045C26.0525 20.2045 27.0048 18.8493 27.0048 17.1972V8.42323C27.0048 6.73154 28.217 5.63375 29.8691 5.63375C31.5213 5.63375 32.6208 6.77108 32.6208 8.42323V17.1972C32.6208 18.8493 33.5402 20.2045 35.3001 20.2045C37.0616 20.2045 38.0189 18.8493 38.0189 17.1972V8.42323C38.0189 6.73154 39.226 5.63375 40.879 5.63375C42.5287 5.63375 43.6323 6.77108 43.6323 8.42323V17.1972C43.6323 18.8493 44.551 20.2045 46.3125 20.2045C48.0731 20.2045 49.0288 18.8493 49.0288 17.1972V7.21188C49.0288 3.54332 46.0786 0.973392 42.5287 0.973392C38.9829 0.973392 36.7621 3.42639 36.7621 3.42639C35.5819 1.89621 33.9549 0.976759 31.2016 0.976759C28.2961 0.976759 25.7531 3.42639 25.7531 3.42639C24.572 1.89621 22.5615 0.976759 20.8967 0.976759C18.3217 0.976759 16.2767 2.10904 15.0292 4.96162L11.3438 13.6514L6.61614 2.51282Z" fill="white"/>
<path d="M123.377 3.60643V3.59128C123.377 2.36394 124.373 1.33009 125.625 1.33009C126.895 1.33009 127.877 2.35301 127.877 3.58203V3.59128C127.877 4.82283 126.884 5.85669 125.625 5.85669C124.356 5.85669 123.377 4.83713 123.377 3.60643ZM127.445 3.59128V3.5854C127.445 2.57593 126.665 1.74817 125.625 1.74817C124.595 1.74817 123.803 2.59023 123.803 3.59128V3.60306C123.803 4.61 124.585 5.43776 125.625 5.43776C126.652 5.43776 127.445 4.59738 127.445 3.59128Z" fill="white"/>
<path d="M124.807 2.68108C124.807 2.54733 124.914 2.44049 125.05 2.44049H125.8C126.083 2.44049 126.301 2.52041 126.436 2.66341C126.56 2.78371 126.627 2.95784 126.627 3.15973V3.16646C126.627 3.50968 126.454 3.71915 126.192 3.82935L126.524 4.23313C126.57 4.2937 126.601 4.34333 126.601 4.41736C126.601 4.55027 126.488 4.63776 126.374 4.63776C126.267 4.63776 126.195 4.58308 126.138 4.5141L125.671 3.92356H125.289V4.39801C125.289 4.53176 125.185 4.63692 125.051 4.63692C124.915 4.63692 124.808 4.53092 124.808 4.39801L124.807 2.68108ZM125.773 3.49874C126.007 3.49874 126.136 3.37677 126.136 3.19086V3.18329C126.136 2.98055 125.998 2.87119 125.765 2.87119H125.286V3.4979L125.773 3.49874Z" fill="white"/>
</g>
</g>
<defs>
<clipPath id="clip0_50_10">
<rect width="128" height="20.8622" fill="white" transform="translate(0.424805 0.325638)"/>
</clipPath>
</defs>
</svg>
