<svg width="38" height="41" viewBox="0 0 38 41" fill="none" xmlns="http://www.w3.org/2000/svg">
<g clip-path="url(#clip0_50_30)">
<path fill-rule="evenodd" clip-rule="evenodd" d="M30.059 11.8676C28.9319 12.0428 28.331 12.6796 28.38 13.6468C28.4291 14.6162 28.8894 15.0009 30.4006 15.3353C31.5943 15.5994 31.8242 15.7586 31.8212 16.3185C31.8184 16.8483 31.435 17.1012 30.6347 17.1013C29.7038 17.1015 29.2951 16.839 29.043 16.0794L28.9389 15.7656L28.6551 15.7548L28.3713 15.7439V16.5395V17.3352L28.6959 17.4713C30.7654 18.3392 32.9226 17.7098 33.0008 16.2153C33.0556 15.1685 32.5524 14.6233 31.2463 14.3141C29.7406 13.9578 29.5362 13.8332 29.5658 13.291C29.5923 12.8058 29.9015 12.5866 30.5933 12.5625C31.4645 12.5321 31.831 12.761 32.0646 13.4814L32.1435 13.7249H32.4187H32.694L32.704 13.0148L32.7141 12.3048L32.3841 12.1727C31.592 11.8556 30.8021 11.752 30.059 11.8676ZM3.9811 11.9872C3.96746 12.0007 3.95633 12.1587 3.95633 12.3382V12.6645L4.28016 12.6752L4.60409 12.6859L4.91029 13.7249C5.07875 14.2963 5.40286 15.4192 5.6305 16.2202L6.0444 17.6765H6.61192C7.12016 17.6765 7.18147 17.6698 7.1991 17.6116C7.20995 17.5759 7.38722 16.9539 7.59297 16.2294C8.22876 13.9915 8.34592 13.595 8.37133 13.595C8.38478 13.595 8.49099 13.9415 8.60732 14.3649C8.72364 14.7884 8.98004 15.7067 9.17715 16.4057L9.5354 17.6765H10.0965H10.6575L10.9582 16.6283C11.1236 16.0518 11.4469 14.9243 11.6768 14.1228L12.0947 12.6655L12.6543 12.6757L13.214 12.6859V14.838V16.9901L12.8707 17.0008L12.5275 17.0114V17.344V17.6765H14.9764H17.4254V16.7102V15.7439L17.1413 15.7548L16.8573 15.7656L16.7712 16.0903C16.5509 16.9214 16.4386 16.9888 15.2733 16.9895L14.4384 16.9901V16.0996V15.2091L15.2607 15.199L16.0828 15.1891L16.1234 15.073C16.1741 14.9273 16.1747 14.7304 16.1249 14.5512L16.0865 14.4127L15.2624 14.4028L14.4384 14.3928V13.5393V12.6859L15.162 12.6753C16.3156 12.6581 16.4923 12.7601 16.7065 13.5672L16.773 13.8176H17.0621H17.3511V12.89V11.9624H13.9004H10.4497V12.3149V12.6674H10.8393C11.0535 12.6674 11.2289 12.6807 11.2289 12.6968C11.2289 12.7447 10.3093 16.0853 10.2911 16.1035C10.285 16.1096 10.1653 15.7104 10.025 15.2166C9.74922 14.2454 9.20971 12.3277 9.1484 12.1006L9.11055 11.9605L8.53135 11.9707L7.95214 11.9809L7.84676 12.352C7.78869 12.5561 7.53787 13.4744 7.28936 14.3928C6.81497 16.1452 6.82648 16.1065 6.79076 16.0707C6.77258 16.0525 5.84867 12.7281 5.84867 12.6808C5.84867 12.6734 6.01564 12.6674 6.21972 12.6674H6.59077V12.3149V11.9624H5.29832C4.58739 11.9624 3.99464 11.9735 3.9811 11.9872ZM18.0561 12.3149V12.6674H18.3904H18.7246L18.715 14.8287L18.7055 16.9901L18.3808 17.0009L18.0561 17.0115V17.3441V17.6765H20.3573H22.6584L22.6485 16.7211L22.6386 15.7656L22.3559 15.7549L22.0733 15.7441L21.9928 16.0652C21.7861 16.8894 21.6584 16.978 20.6442 17.0015L19.9485 17.0175V14.8425V12.6674H20.3195H20.6906V12.3149V11.9624H19.3734H18.0561V12.3149ZM23.1766 12.3135V12.6646L23.5198 12.6753L23.863 12.6859V14.838V16.9901L23.5198 17.0008L23.1766 17.0114V17.344V17.6765H25.4771H27.7776V16.7118V15.7471H27.5007H27.2239L27.1848 15.9048C26.9436 16.8805 26.8248 16.9788 25.8586 17.0025C25.5276 17.0107 25.2145 17.0067 25.1626 16.9936L25.0684 16.97L25.0779 14.828L25.0875 12.6859L25.4678 12.6754L25.8481 12.6648V12.3136V11.9624H24.5124H23.1766V12.3135ZM23.492 20.498C21.949 20.7385 21.0539 21.8317 21.0475 23.4834C21.0375 26.0802 23.3612 27.2576 26.0582 26.0224L26.2934 25.9146V24.6341V23.3536H25.2233H24.1532L24.1102 23.4481C24.0577 23.5631 24.0538 23.9072 24.1033 24.0376L24.1395 24.1328H24.6228H25.106V24.8713V25.61L24.9326 25.6691C23.2106 26.2558 21.9803 24.8072 22.4143 22.7042C22.7808 20.9285 24.9279 20.5872 25.5199 22.2106L25.5983 22.4259H25.8903H26.1821V21.6907V20.9554L25.9873 20.875C25.1703 20.5378 24.1883 20.3894 23.492 20.498ZM29.6885 20.498C27.8701 20.7814 26.8117 22.4404 27.2578 24.3081C27.9383 27.1573 32.2173 27.2705 33.0772 24.4622C33.766 22.2128 31.993 20.1387 29.6885 20.498ZM4.85473 20.9881L4.8654 21.3313L5.20862 21.342L5.55183 21.3527V23.5034V25.6541H5.19934H4.84684V26.0065V26.359H6.21972H7.5926V26.0065V25.6541H7.18444H6.77629V24.8199V23.9857L7.62042 23.9758L8.46456 23.9658L8.51103 23.7803C8.54582 23.6412 8.54749 23.5461 8.5178 23.4006L8.4781 23.2065L7.63647 23.1965L6.79484 23.1866L6.78492 22.2682L6.77499 21.3499L7.63833 21.35C8.76019 21.35 8.87429 21.4064 9.07159 22.0575C9.21676 22.5364 9.18615 22.505 9.49412 22.4925L9.76322 22.4816L9.77315 21.5633L9.78308 20.6449H7.31357H4.84406L4.85473 20.9881ZM10.5832 23.0671C9.43809 25.951 9.59189 25.6541 9.24292 25.6541H8.96547V26.0065V26.359H10.0415H11.1175V26.0065V25.6541H10.8044C10.4152 25.6541 10.4265 25.6903 10.6366 25.116L10.813 24.6337L11.8855 24.6238L12.958 24.614L13.1333 25.1062C13.2296 25.3769 13.308 25.6109 13.3076 25.6262C13.3071 25.6415 13.1648 25.6541 12.9913 25.6541H12.6759V26.0065V26.359H15.2362H17.7964V26.0065V25.6541H17.4068H17.0172V24.7821V23.9101H17.4371C18.3679 23.9101 18.6147 24.1419 18.744 25.1381C18.8752 26.149 19.1486 26.3968 20.1315 26.3956C20.6722 26.3949 20.6923 26.3869 20.7178 26.1618C20.7563 25.8204 20.7127 25.7284 20.5127 25.7277C20.1467 25.7266 20.0439 25.5862 19.9654 24.9804C19.8482 24.0759 19.6576 23.8214 18.9467 23.6204L18.8168 23.5838L18.9386 23.58C20.1473 23.5423 20.7569 21.9875 19.8924 21.1473C19.4232 20.6913 19.1472 20.6449 16.9026 20.6449H15.1249V20.9974V21.3499H15.4588H15.7927V23.5029V25.656L15.2303 25.6457L14.6679 25.6355L14.3927 24.9676C14.2413 24.6003 13.901 23.7654 13.6364 23.1124C13.3718 22.4593 13.0368 21.637 12.8919 21.285L12.6285 20.6449L12.0864 20.646L11.5443 20.647L10.5832 23.0671ZM30.8294 21.3095C32.0289 21.7754 32.2963 24.423 31.2421 25.3948C30.7463 25.8517 29.8645 25.906 29.2721 25.516C28.168 24.7893 28.2299 22.0627 29.3655 21.3972C29.7356 21.1802 30.395 21.1407 30.8294 21.3095ZM18.6321 21.4633C19.1351 21.7223 19.246 22.4976 18.8383 22.9053C18.606 23.1376 18.4069 23.1853 17.6665 23.186L17.0358 23.1866L17.0258 22.2654L17.0159 21.3442L17.732 21.3563C18.415 21.3679 18.4566 21.3728 18.6321 21.4633ZM12.3049 22.864C12.5135 23.4211 12.6765 23.8848 12.667 23.8944C12.6575 23.9038 12.2994 23.9072 11.8714 23.9016L11.0932 23.8916L11.4841 22.8436C11.6992 22.2673 11.8864 21.8081 11.9003 21.8233C11.9141 21.8384 12.0962 22.3067 12.3049 22.864Z" fill="white"/>
<path fill-rule="evenodd" clip-rule="evenodd" d="M0.876633 38.7706V40.1991H18.8724H36.8683V38.7706V37.342H18.8724H0.876633V38.7706Z" fill="#A0A0A0"/>
<path fill-rule="evenodd" clip-rule="evenodd" d="M0.876633 19.3091V37.3049H18.8724H36.8683V19.3091V1.31332H18.8724H0.876633V19.3091ZM31.5808 11.8843C31.9364 11.9731 32.2281 12.0724 32.5277 12.2069L32.7496 12.3064V13.025V13.7434H32.4157C32.1548 13.7434 32.0817 13.7321 32.0817 13.6917C32.0817 13.0369 31.5407 12.6122 30.7063 12.6119C29.9394 12.6116 29.5957 12.8319 29.5957 13.3238C29.5957 13.8046 29.7978 13.936 30.9315 14.1916C31.7471 14.3756 31.9855 14.4545 32.2558 14.6301C33.3522 15.3425 33.3047 16.9857 32.1712 17.5574C31.2744 18.0096 29.6068 17.9565 28.5568 17.4422L28.3156 17.324L28.3056 16.5179L28.2956 15.7117L28.381 15.6903C28.4279 15.6785 28.5743 15.674 28.7063 15.6802L28.9464 15.6914L29.0253 15.9374C29.2961 16.7814 29.6771 17.0571 30.579 17.0618C31.381 17.066 31.732 16.8777 31.7761 16.4198C31.8341 15.8157 31.6338 15.6622 30.4154 15.3765C29.1519 15.0803 28.7311 14.838 28.463 14.2526C27.9549 13.1426 28.7131 12.0299 30.1337 11.8008C30.3909 11.7593 31.2875 11.8111 31.5808 11.8843ZM6.62008 11.9568C6.65496 11.9789 6.66498 12.0821 6.65718 12.3365L6.64642 12.6859L6.2661 12.6965C6.05692 12.7024 5.88578 12.7151 5.88578 12.7247C5.88578 12.7453 6.12853 13.6112 6.41582 14.6154C6.52676 15.0031 6.65579 15.4667 6.70264 15.6455C6.74948 15.8243 6.79364 15.9647 6.80087 15.9575C6.82044 15.938 7.52005 13.456 7.72311 12.6859C7.81995 12.3186 7.91578 11.9972 7.936 11.9717C8.0014 11.8891 9.10174 11.9075 9.14691 11.9919C9.17836 12.0507 9.82574 14.3524 10.1583 15.5875C10.2253 15.8366 10.2845 16.0359 10.2897 16.0307C10.3094 16.0111 11.1547 12.8161 11.1547 12.7614C11.1547 12.714 11.0922 12.7045 10.7823 12.7045H10.41L10.4205 12.3242L10.4311 11.9438L13.8262 11.9336C15.6935 11.9281 17.2591 11.9326 17.3054 11.9437L17.3896 11.9642L17.3796 12.9001L17.3697 13.8362H17.0579H16.7462L16.63 13.4756C16.3989 12.7575 16.3053 12.7088 15.1527 12.7061L14.457 12.7045V13.5393V14.3742H15.2742H16.0914L16.1276 14.4694C16.1744 14.5923 16.1744 15.0095 16.1276 15.1324L16.0914 15.2276H15.2742H14.457V16.081V16.9344H15.2933C16.427 16.9344 16.4984 16.8949 16.703 16.1552C16.7566 15.9614 16.8073 15.7812 16.8155 15.7549C16.8266 15.7196 16.9115 15.7098 17.1372 15.7178L17.4439 15.7285V16.7118V17.6951L14.9659 17.7046L12.4878 17.7142L12.4984 17.3336L12.509 16.953L12.8522 16.9423L13.1954 16.9316V14.8181V12.7045H12.6624H12.1293L12.015 13.0663C11.9521 13.2652 11.6409 14.3547 11.3236 15.4873C11.0061 16.62 10.7301 17.5842 10.7101 17.6301C10.6748 17.7116 10.6598 17.7136 10.0971 17.7136H9.52019L9.48586 17.6234C9.46703 17.5737 9.31611 17.0353 9.15053 16.4267C8.88987 15.4686 8.44535 13.9119 8.38441 13.7434C8.37337 13.7128 8.27356 14.005 8.16262 14.3928C8.05167 14.7805 7.8373 15.5152 7.68619 16.0254C7.53508 16.5356 7.36375 17.12 7.3054 17.324L7.19947 17.6951H6.61294H6.0265L5.77177 16.8417C5.63161 16.3723 5.30982 15.2536 5.05667 14.3556L4.59638 12.723L4.2578 12.7124L3.91922 12.7017V12.3351C3.91922 12.0766 3.93286 11.963 3.9656 11.9499C4.04454 11.918 6.56934 11.9245 6.62008 11.9568ZM20.7199 11.9568C20.7548 11.9789 20.7648 12.0821 20.757 12.3365L20.7462 12.6859L20.3474 12.6965L19.9485 12.707V14.8208V16.9344L20.6442 16.9336C21.6479 16.9325 21.7568 16.8635 21.9538 16.1048L22.0515 15.7285L22.3728 15.7178L22.6942 15.7071V16.7106V17.7142L20.3474 17.7046L18.0005 17.6951L17.9897 17.3667C17.9757 16.94 17.9809 16.9344 18.3949 16.9344H18.7247L18.715 14.8287L18.7055 12.723L18.353 12.7045L18.0005 12.6859L17.9897 12.3576C17.9828 12.1475 17.9944 12.0105 18.0221 11.9772C18.0709 11.9184 20.6288 11.899 20.7199 11.9568ZM25.8265 11.9478C25.8746 11.9662 25.8852 12.0368 25.8852 12.3361V12.7019L25.5049 12.7125L25.1246 12.723L25.115 14.8287L25.1054 16.9344H25.7898C26.7889 16.9344 26.906 16.8544 27.1129 16.0292L27.193 15.71H27.5031C27.8866 15.71 27.8571 15.6168 27.8437 16.786L27.8332 17.6951H25.4956H23.158V17.324V16.953L23.5013 16.9423L23.8445 16.9316V14.8181V12.7045H23.492H23.1395V12.3397C23.1395 12.1389 23.1506 11.9636 23.1643 11.9501C23.1951 11.9191 25.7463 11.917 25.8265 11.9478ZM24.9391 20.5145C25.2959 20.5913 25.7521 20.7404 25.9966 20.8603L26.2006 20.9603V21.7024V22.4445L25.8949 22.4552L25.5891 22.466L25.4437 22.1511C25.1366 21.4863 24.7873 21.2567 24.0857 21.258C22.9337 21.2601 22.4164 21.9498 22.4164 23.4834C22.4164 24.7471 22.7492 25.3844 23.5507 25.6553C23.8467 25.7554 24.5939 25.7451 24.8927 25.6368L25.0689 25.5729V24.8713V24.1699H24.5856H24.1024L24.0662 24.0747C24.0034 23.9094 24.0213 23.4837 24.0949 23.3938C24.1589 23.3157 24.1758 23.3147 25.2359 23.3248L26.3119 23.335L26.3217 24.6365L26.3314 25.9381L26.0248 26.0705C23.2697 27.2605 21.0034 26.0921 21.0067 23.4834C21.0096 21.3194 22.7107 20.0349 24.9391 20.5145ZM31.0115 20.5317C33.9392 21.3076 34.0038 25.6784 31.0985 26.4151C29.2915 26.8732 27.6494 25.9817 27.2237 24.3114C26.6205 21.944 28.6603 19.9087 31.0115 20.5317ZM9.80033 21.5725V22.5187L9.49366 22.5295C9.26778 22.5374 9.18309 22.5276 9.17252 22.4924C9.16454 22.466 9.1151 22.3014 9.06269 22.1267C8.85462 21.4332 8.76585 21.387 7.64037 21.387H6.81339V22.259V23.1309H7.62515C8.59229 23.1309 8.53877 23.1049 8.53877 23.5762C8.53877 24.0475 8.59229 24.0214 7.62515 24.0214H6.81339V24.8192V25.6169H7.20299H7.59259V25.988V26.359H6.21972H4.84684V25.988V25.6169H5.18079H5.51473V23.502V21.387H5.18079H4.84684V20.9971V20.6072L7.32359 20.6168L9.80033 20.6264V21.5725ZM12.8737 21.1644C12.9927 21.4603 13.1983 21.9612 13.3306 22.2775C13.4628 22.5938 13.7628 23.3285 13.9972 23.9101C14.2317 24.4917 14.4834 25.1137 14.5567 25.2923L14.6898 25.6169H15.2227H15.7556V23.502V21.387H15.4217H15.0878V20.9944V20.602L16.9894 20.6176C19.0596 20.6348 19.0771 20.6364 19.5347 20.8603C20.0698 21.122 20.301 21.5102 20.301 22.1469C20.301 22.897 19.9393 23.36 19.2022 23.5533C19.0923 23.5821 19.0274 23.6139 19.058 23.624C19.7081 23.8369 19.8727 24.0533 19.9691 24.8218C20.0604 25.5507 20.1496 25.6912 20.5205 25.6912C20.7267 25.6912 20.7648 25.7476 20.7648 26.0526C20.7648 26.4094 20.7552 26.4147 20.1091 26.4147C19.1806 26.4147 18.8698 26.1744 18.7581 25.3708C18.5944 24.1934 18.4051 23.9785 17.5088 23.9527L17.0543 23.9396V24.777V25.6143L17.4346 25.6249L17.815 25.6355L17.8255 25.9973L17.8362 26.359H15.2375H12.6388V25.988V25.6169H12.9542C13.3282 25.6169 13.3167 25.6562 13.1058 25.0975L12.9447 24.6708H11.896H10.8472L10.6722 25.1346L10.4972 25.5984L10.8259 25.6091L11.1547 25.6197V25.9894V26.359H10.0601H8.96547V25.9896V25.6201L9.24543 25.6092L9.52529 25.5984L9.80422 24.912C9.95765 24.5344 10.3648 23.5159 10.709 22.6486C11.0532 21.7812 11.3631 21.0048 11.3976 20.9232C11.4321 20.8416 11.4748 20.7367 11.4925 20.6904C11.5242 20.6069 11.5315 20.6059 12.091 20.6161L12.6574 20.6264L12.8737 21.1644ZM29.7441 21.2873C28.9001 21.5313 28.5408 22.1863 28.5393 23.4834C28.5385 24.182 28.5605 24.3257 28.7424 24.8112C29.1812 25.9824 31.0044 26.0496 31.579 24.9157C31.9361 24.2108 31.9451 22.8349 31.5972 22.106C31.2797 21.4407 30.4623 21.0796 29.7441 21.2873ZM17.0543 22.2583V23.1367L17.75 23.1245C18.7225 23.1075 18.9944 22.9474 19.047 22.361C19.1105 21.6553 18.7833 21.4147 17.7315 21.3936L17.0543 21.38V22.2583ZM11.4998 22.8882L11.1283 23.9101H11.8876C12.5954 23.9101 12.6451 23.9058 12.6217 23.8452C12.6079 23.8095 12.4456 23.3628 12.2611 22.8526C12.0766 22.3424 11.9134 21.9118 11.8985 21.8956C11.8836 21.8795 11.7042 22.3261 11.4998 22.8882Z" fill="#787878"/>
<path fill-rule="evenodd" clip-rule="evenodd" d="M6.59837 12.3056L6.59077 12.6674H6.21972C5.88995 12.6674 5.84904 12.6746 5.85164 12.7323C5.85331 12.7711 5.86203 12.7786 5.87325 12.7509C5.88633 12.7184 5.99681 12.7045 6.24254 12.7045C6.65431 12.7045 6.63548 12.726 6.6185 12.2748L6.60607 11.9438L6.59837 12.3056ZM10.429 12.3241L10.4311 12.6859L10.8009 12.6967C11.0393 12.7036 11.1807 12.7233 11.1992 12.7523C11.2188 12.7831 11.2279 12.7769 11.2283 12.7323C11.2288 12.6746 11.1858 12.6674 10.8406 12.6674H10.4524L10.4396 12.3148L10.4268 11.9622L10.429 12.3241ZM18.0355 12.3241L18.0376 12.6859L18.3901 12.6882L18.7426 12.6906L18.4007 12.6776L18.0588 12.6646L18.046 12.3134L18.0333 11.9622L18.0355 12.3241ZM20.6982 12.3043L20.6906 12.6648L20.3103 12.6768L19.9299 12.6888L20.3115 12.6967C20.7588 12.7059 20.7355 12.7301 20.7183 12.2748L20.7059 11.9438L20.6982 12.3043ZM25.8557 12.3229L25.8481 12.6648L25.4678 12.6754L25.0875 12.6859L25.087 14.8287L25.0866 16.9715L25.0966 14.838L25.1066 12.7045H25.4786C25.9132 12.7045 25.8932 12.7251 25.8759 12.2933L25.8633 11.9809L25.8557 12.3229ZM4.11514 12.6947C4.21272 12.7023 4.363 12.7023 4.44908 12.6945C4.53516 12.6867 4.45539 12.6805 4.27172 12.6805C4.08805 12.6806 4.01755 12.687 4.11514 12.6947ZM12.6388 12.6946L13.1954 12.7064V14.8375V16.9687L12.8522 16.9817L12.509 16.9947L12.8615 16.9924L13.214 16.9901V14.838V12.6859L12.6481 12.6844L12.0822 12.683L12.6388 12.6946ZM14.4365 12.7146C14.4266 12.7407 14.4232 13.1289 14.4291 13.5773L14.4399 14.3927L14.4484 13.5494L14.457 12.706L15.2269 12.6952L15.9968 12.6844L15.2257 12.6758C14.6292 12.6693 14.4506 12.678 14.4365 12.7146ZM23.5198 12.6946L23.8445 12.7073V14.838V16.9687L23.5198 16.9815L23.1951 16.9943L23.5291 16.9921L23.863 16.9901V14.838V12.6859L23.5291 12.6839L23.1951 12.6818L23.5198 12.6946ZM31.4169 12.6786C31.4255 12.6848 31.4825 12.7191 31.5437 12.755L31.655 12.8202L31.5675 12.7438C31.5192 12.7018 31.4622 12.6674 31.4407 12.6674C31.4191 12.6674 31.4085 12.6724 31.4169 12.6786ZM28.346 13.5579C28.346 13.6905 28.3528 13.7448 28.361 13.6785C28.3692 13.6122 28.3692 13.5036 28.361 13.4373C28.3528 13.371 28.346 13.4252 28.346 13.5579ZM10.9533 13.6162C10.9395 13.6706 10.9356 13.7223 10.9443 13.731C10.9531 13.7397 10.9714 13.7024 10.985 13.648C10.9987 13.5936 11.0027 13.5419 10.994 13.5332C10.9852 13.5245 10.9669 13.5618 10.9533 13.6162ZM16.6885 13.595C16.6885 13.6256 16.7028 13.684 16.7204 13.7249C16.7405 13.7716 16.7523 13.7785 16.7523 13.7434C16.7523 13.7128 16.7379 13.6544 16.7204 13.6135C16.7002 13.5668 16.6885 13.5599 16.6885 13.595ZM9.71276 14.1145C9.71276 14.1451 9.72714 14.2035 9.74467 14.2443C9.7648 14.2911 9.77658 14.2979 9.77658 14.2629C9.77658 14.2323 9.7622 14.1738 9.74467 14.133C9.72454 14.0863 9.71276 14.0794 9.71276 14.1145ZM28.7794 14.6896C28.8486 14.761 28.9136 14.8195 28.9238 14.8195C28.9341 14.8195 28.8857 14.761 28.8165 14.6896C28.7473 14.6182 28.6823 14.5597 28.6721 14.5597C28.6619 14.5597 28.7102 14.6182 28.7794 14.6896ZM5.18598 14.7452C5.18598 14.7759 5.20036 14.8343 5.21789 14.8751C5.23802 14.9219 5.2498 14.9287 5.2498 14.8937C5.2498 14.863 5.23542 14.8046 5.21789 14.7638C5.19776 14.717 5.18598 14.7102 5.18598 14.7452ZM14.4366 15.2377C14.4266 15.2636 14.4229 15.6685 14.4284 16.1375L14.4384 16.9901L15.1805 16.9912L15.9226 16.9924L15.1898 16.9812L14.457 16.97V16.0995V15.229L15.2826 15.2183L16.1081 15.2076L15.2814 15.199C14.6405 15.1924 14.4506 15.2011 14.4366 15.2377ZM16.8559 15.7378C16.8463 15.7531 16.9331 15.7609 17.0485 15.7551C17.4109 15.7371 17.4546 15.7213 17.1586 15.7155C17.0016 15.7125 16.8654 15.7225 16.8559 15.7378ZM22.1748 15.7328C22.3963 15.7606 22.6488 15.7634 22.6329 15.7378C22.6234 15.7225 22.4955 15.7125 22.3488 15.7155C22.202 15.7186 22.1237 15.7263 22.1748 15.7328ZM27.2019 15.748C27.1879 15.7706 27.1865 15.7991 27.1988 15.8114C27.211 15.8236 27.221 15.8141 27.221 15.7904C27.221 15.7613 27.312 15.7471 27.4993 15.7471H27.7776V16.7115V17.676L25.4678 17.686L23.158 17.6959L25.4771 17.6955L27.7961 17.6951V16.7118V15.7285L27.5117 15.7178C27.3326 15.711 27.2179 15.7222 27.2019 15.748ZM28.3427 16.5355L28.3512 17.3611L28.362 16.5513L28.3727 15.7415L28.6654 15.7536C28.8264 15.7602 28.9503 15.7531 28.9408 15.7378C28.9313 15.7225 28.7908 15.71 28.6288 15.71H28.3342L28.3427 16.5355ZM6.74345 15.9203C6.73687 15.9867 6.78028 16.081 6.81739 16.081C6.83557 16.081 6.8505 16.0549 6.8505 16.0231C6.8505 15.9913 6.8351 15.9749 6.81618 15.9865C6.79735 15.9982 6.77425 15.9783 6.76488 15.9423C6.75551 15.9063 6.74587 15.8964 6.74345 15.9203ZM33.0209 16.0996C33.021 16.222 33.028 16.2677 33.0363 16.201C33.0445 16.1343 33.0443 16.0341 33.0359 15.9783C33.0274 15.9226 33.0207 15.9771 33.0209 16.0996ZM16.463 16.7217C16.3574 16.852 16.3532 16.8629 16.4386 16.786C16.5274 16.706 16.6328 16.5621 16.6011 16.564C16.5952 16.5644 16.5332 16.6354 16.463 16.7217ZM29.3731 16.6932C29.4423 16.7647 29.5073 16.8231 29.5175 16.8231C29.5277 16.8231 29.4794 16.7647 29.4102 16.6932C29.341 16.6218 29.276 16.5634 29.2658 16.5634C29.2556 16.5634 29.3039 16.6218 29.3731 16.6932ZM31.5785 16.8324L31.4695 16.953L31.5901 16.844C31.6564 16.7841 31.7107 16.7298 31.7107 16.7234C31.7107 16.6947 31.6801 16.72 31.5785 16.8324ZM18.027 17.3333L18.0376 17.6951L20.3195 17.6955L22.6015 17.6959L20.3288 17.686L18.0561 17.676V17.3438V17.0115L18.3808 16.9992L18.7055 16.9868L18.361 16.9791L18.0163 16.9715L18.027 17.3333ZM20.236 16.9992C20.4044 17.006 20.6799 17.006 20.8483 16.9992C21.0166 16.9922 20.8789 16.9866 20.5422 16.9866C20.2054 16.9866 20.0677 16.9922 20.236 16.9992ZM25.4325 16.9992C25.6018 17.006 25.8689 17.006 26.0261 16.9991C26.1834 16.9921 26.0448 16.9865 25.7183 16.9866C25.3917 16.9866 25.2632 16.9923 25.4325 16.9992ZM32.5442 17.2405L32.36 17.4353L32.5548 17.2512C32.7358 17.0802 32.7666 17.0457 32.739 17.0457C32.7331 17.0457 32.6455 17.1334 32.5442 17.2405ZM30.31 17.1095C30.3661 17.1179 30.4579 17.1179 30.5141 17.1095C30.5702 17.1009 30.5243 17.094 30.412 17.094C30.2998 17.094 30.2539 17.1009 30.31 17.1095ZM30.7181 17.1095C30.7743 17.1179 30.8661 17.1179 30.9222 17.1095C30.9783 17.1009 30.9324 17.094 30.8202 17.094C30.7079 17.094 30.662 17.1009 30.7181 17.1095ZM6.30321 17.7041C6.46137 17.711 6.72017 17.711 6.87833 17.7041C7.03649 17.6971 6.90709 17.6915 6.59077 17.6915C6.27445 17.6915 6.14505 17.6971 6.30321 17.7041ZM9.82983 17.7042C9.98891 17.7111 10.2394 17.711 10.3864 17.7041C10.5334 17.697 10.4033 17.6913 10.0972 17.6914C9.79105 17.6915 9.67074 17.6971 9.82983 17.7042ZM13.7825 17.7043C14.4625 17.71 15.5646 17.71 16.2314 17.7043C16.8983 17.6987 16.3419 17.6941 14.995 17.6941C13.6481 17.6941 13.1025 17.6987 13.7825 17.7043ZM30.2921 17.8518C30.3588 17.8601 30.459 17.8599 30.5147 17.8515C30.5705 17.843 30.5159 17.8363 30.3935 17.8364C30.271 17.8366 30.2254 17.8436 30.2921 17.8518ZM30.9598 17.8512C31.0059 17.8601 31.0727 17.8597 31.1082 17.8504C31.1436 17.8412 31.1059 17.8338 31.0243 17.8343C30.9426 17.8347 30.9136 17.8423 30.9598 17.8512ZM15.1013 20.9974C15.1014 21.2015 15.1076 21.2802 15.1151 21.1724C15.1226 21.0646 15.1226 20.8976 15.1149 20.8014C15.1073 20.7051 15.1012 20.7933 15.1013 20.9974ZM27.9803 21.3221L27.7961 21.5169L27.9909 21.3327C28.1719 21.1617 28.2027 21.1273 28.1751 21.1273C28.1692 21.1273 28.0816 21.2149 27.9803 21.3221ZM32.36 21.3128C32.4397 21.3944 32.5133 21.4612 32.5235 21.4612C32.5337 21.4612 32.4768 21.3944 32.3971 21.3128C32.3174 21.2312 32.2439 21.1644 32.2337 21.1644C32.2235 21.1644 32.2803 21.2312 32.36 21.3128ZM30.9686 21.4084C31.0604 21.4606 31.2106 21.573 31.3024 21.6584L31.4691 21.8137L31.3395 21.6697C31.208 21.5238 30.9123 21.3124 30.8408 21.3132C30.8193 21.3134 30.8768 21.3563 30.9686 21.4084ZM8.61298 21.4302C8.65379 21.4527 8.72967 21.5065 8.78171 21.5497C8.83366 21.5928 8.82132 21.5739 8.75435 21.5076C8.68737 21.4413 8.61149 21.3875 8.58571 21.3881C8.55992 21.3888 8.57216 21.4077 8.61298 21.4302ZM25.106 21.5911C25.1752 21.6625 25.2403 21.7209 25.2505 21.7209C25.2607 21.7209 25.2123 21.6625 25.1431 21.5911C25.0739 21.5196 25.0089 21.4612 24.9987 21.4612C24.9885 21.4612 25.0368 21.5196 25.106 21.5911ZM19.0681 22.2775C19.0681 22.3693 19.0753 22.4069 19.0841 22.361C19.093 22.3151 19.093 22.2399 19.0841 22.194C19.0753 22.1481 19.0681 22.1857 19.0681 22.2775ZM22.513 22.3182C22.4903 22.3835 22.4728 22.4554 22.4742 22.4779C22.4757 22.5003 22.5007 22.4534 22.53 22.3735C22.5593 22.2937 22.5767 22.2219 22.5688 22.214C22.5608 22.206 22.5358 22.2529 22.513 22.3182ZM21.0331 23.0196C21.0331 23.091 21.0408 23.1203 21.0501 23.0845C21.0594 23.0488 21.0594 22.9904 21.0501 22.9547C21.0408 22.919 21.0331 22.9482 21.0331 23.0196ZM22.3697 23.0382C22.37 23.1198 22.3776 23.1488 22.3865 23.1026C22.3954 23.0565 22.3951 22.9897 22.3858 22.9542C22.3765 22.9188 22.3692 22.9565 22.3697 23.0382ZM28.4966 23.502C28.4966 23.7367 28.5026 23.8327 28.51 23.7153C28.5174 23.598 28.5174 23.406 28.51 23.2886C28.5026 23.1713 28.4966 23.2673 28.4966 23.502ZM6.80848 23.178C6.82425 23.1937 7.21162 23.2021 7.6694 23.1965L8.50166 23.1865L7.64074 23.1679C7.16728 23.1578 6.79271 23.1624 6.80848 23.178ZM17.0497 23.1783C17.0656 23.1942 17.3278 23.2025 17.6323 23.1968L18.186 23.1863L17.6034 23.1679C17.2829 23.1577 17.0337 23.1625 17.0497 23.1783ZM31.8721 23.502C31.8721 23.6754 31.8785 23.7464 31.8863 23.6597C31.8941 23.5729 31.8941 23.431 31.8863 23.3443C31.8785 23.2575 31.8721 23.3285 31.8721 23.502ZM20.9996 23.4834C20.9998 23.6263 21.0064 23.6802 21.0145 23.6032C21.0226 23.5262 21.0224 23.4093 21.0142 23.3434C21.006 23.2776 20.9994 23.3406 20.9996 23.4834ZM22.3326 23.4834C22.3329 23.565 22.3405 23.5941 22.3494 23.5479C22.3583 23.5018 22.358 23.435 22.3487 23.3995C22.3394 23.364 22.3321 23.4018 22.3326 23.4834ZM26.3101 24.6337C26.3101 25.3275 26.3151 25.6061 26.3211 25.2528C26.3273 24.8994 26.3273 24.3317 26.3211 23.9912C26.315 23.6507 26.31 23.9398 26.3101 24.6337ZM24.0406 23.7431C24.0409 23.8452 24.0481 23.8826 24.0566 23.8262C24.0652 23.7697 24.065 23.6862 24.0562 23.6406C24.0474 23.595 24.0403 23.6411 24.0406 23.7431ZM19.6129 23.9658C19.7024 24.0678 19.7834 24.1596 19.7928 24.1699C19.8024 24.1801 19.7925 24.155 19.771 24.1142C19.7495 24.0734 19.6685 23.9815 19.5911 23.9101C19.4571 23.7867 19.4582 23.7894 19.6129 23.9658ZM22.3697 23.9287C22.37 24.0103 22.3776 24.0393 22.3865 23.9931C22.3954 23.947 22.3951 23.8803 22.3858 23.8447C22.3765 23.8093 22.3692 23.847 22.3697 23.9287ZM21.0331 23.9843C21.0331 24.0558 21.0408 24.085 21.0501 24.0493C21.0594 24.0135 21.0594 23.9551 21.0501 23.9194C21.0408 23.8837 21.0331 23.9129 21.0331 23.9843ZM18.2788 24.0701C18.2788 24.0765 18.333 24.1308 18.3994 24.1907L18.5199 24.2997L18.411 24.1791C18.3094 24.0667 18.2788 24.0415 18.2788 24.0701ZM24.1338 24.1399C24.1683 24.1739 25.1062 24.1958 25.1061 24.1626C25.106 24.1484 24.8814 24.1317 24.6069 24.1255C24.3323 24.1193 24.1194 24.1258 24.1338 24.1399ZM22.4761 24.5038C22.4755 24.5344 22.4979 24.6095 22.526 24.6708C22.5915 24.8141 22.5925 24.7474 22.5273 24.578C22.4997 24.5066 22.4767 24.4732 22.4761 24.5038ZM22.9354 25.3201C23.0359 25.4221 23.1265 25.5056 23.1367 25.5056C23.1469 25.5056 23.073 25.4221 22.9725 25.3201C22.8721 25.2181 22.7814 25.1346 22.7712 25.1346C22.761 25.1346 22.835 25.2181 22.9354 25.3201ZM28.0002 25.6726C28.1317 25.8052 28.2476 25.9138 28.2578 25.9138C28.268 25.9138 28.1688 25.8052 28.0373 25.6726C27.9059 25.5399 27.7899 25.4314 27.7797 25.4314C27.7695 25.4314 27.8688 25.5399 28.0002 25.6726ZM32.3402 25.6819L32.1374 25.8952L32.3507 25.6924C32.549 25.504 32.5811 25.4685 32.5535 25.4685C32.5478 25.4685 32.4518 25.5645 32.3402 25.6819ZM23.1766 25.5249C23.1766 25.5565 23.5574 25.7279 23.6219 25.7253C23.6525 25.7241 23.6175 25.7009 23.5441 25.6739C23.4708 25.6469 23.3581 25.5976 23.2937 25.5642C23.2293 25.5309 23.1766 25.5132 23.1766 25.5249ZM10.4739 25.6262C10.4833 25.6415 10.6315 25.654 10.803 25.654H11.1149L11.1276 26.0066L11.1404 26.3592L11.1382 25.9974L11.1361 25.6355L10.7963 25.6169C10.6094 25.6067 10.4643 25.6109 10.4739 25.6262ZM14.675 25.6272C14.6909 25.6431 14.9531 25.6514 15.2576 25.6457L15.8113 25.6352L15.2287 25.6168C14.9082 25.6066 14.659 25.6114 14.675 25.6272ZM5.0243 25.6443C5.13218 25.6518 5.29915 25.6518 5.39535 25.6441C5.49163 25.6365 5.40342 25.6304 5.19934 25.6305C4.99526 25.6306 4.91651 25.6368 5.0243 25.6443ZM6.97109 25.6444C7.08844 25.6517 7.28045 25.6517 7.3978 25.6444C7.51514 25.637 7.41913 25.6309 7.18444 25.6309C6.94976 25.6309 6.85375 25.637 6.97109 25.6444ZM9.10564 25.6441C9.19283 25.652 9.32641 25.6519 9.40247 25.6439C9.47845 25.636 9.40702 25.6296 9.24376 25.6296C9.0805 25.6298 9.01835 25.6363 9.10564 25.6441ZM12.6547 25.6663C12.6443 25.6934 12.6413 25.8645 12.6482 26.0466L12.6606 26.3776L12.6683 26.0173L12.6759 25.6569L13.0006 25.6446L13.3253 25.6322L12.9994 25.6245C12.7571 25.6189 12.6688 25.6296 12.6547 25.6663ZM17.2134 25.6444C17.3315 25.6518 17.5152 25.6517 17.6215 25.6442C17.7279 25.6368 17.6313 25.6308 17.4068 25.6309C17.1823 25.6309 17.0953 25.637 17.2134 25.6444ZM24.735 25.6911C24.6604 25.715 24.6568 25.7211 24.7164 25.7219C24.7573 25.7225 24.824 25.7087 24.8649 25.6911C24.9594 25.6505 24.8619 25.6505 24.735 25.6911ZM20.403 25.7178C20.4591 25.7262 20.551 25.7262 20.6071 25.7178C20.6632 25.7092 20.6173 25.7023 20.5051 25.7023C20.3928 25.7023 20.3469 25.7092 20.403 25.7178ZM29.8276 25.7539C29.8633 25.7631 29.9218 25.7631 29.9575 25.7539C29.9932 25.7445 29.964 25.7369 29.8926 25.7369C29.8211 25.7369 29.7919 25.7445 29.8276 25.7539ZM30.3842 25.7539C30.4199 25.7631 30.4784 25.7631 30.5141 25.7539C30.5498 25.7445 30.5206 25.7369 30.4491 25.7369C30.3777 25.7369 30.3485 25.7445 30.3842 25.7539ZM24.0393 25.792C24.0954 25.8004 24.1872 25.8004 24.2434 25.792C24.2995 25.7834 24.2536 25.7765 24.1413 25.7765C24.0291 25.7765 23.9832 25.7834 24.0393 25.792ZM19.9218 26.4235C20.0194 26.4311 20.1696 26.431 20.2557 26.4232C20.3418 26.4154 20.262 26.4092 20.0783 26.4093C19.8947 26.4094 19.8242 26.4158 19.9218 26.4235Z" fill="#BCBCBC"/>
<path fill-rule="evenodd" clip-rule="evenodd" d="M30.4213 11.8043C30.5386 11.8117 30.7307 11.8117 30.848 11.8043C30.9653 11.7969 30.8693 11.7909 30.6347 11.7909C30.4 11.7909 30.304 11.7969 30.4213 11.8043ZM4.63349 11.953C4.99573 11.9591 5.58847 11.9591 5.95071 11.953C6.31294 11.947 6.01657 11.942 5.2921 11.942C4.56763 11.942 4.27126 11.947 4.63349 11.953ZM8.14917 11.9503C8.64609 11.9772 9.14274 11.9786 9.12678 11.9531C9.11732 11.9378 8.84748 11.9284 8.52726 11.9323C8.20705 11.9361 8.03693 11.9443 8.14917 11.9503ZM12.1444 11.9531C13.0867 11.9586 14.6395 11.9586 15.5952 11.9531C16.5507 11.9476 15.7798 11.9431 13.8819 11.9431C11.9839 11.9431 11.2021 11.9476 12.1444 11.9531ZM18.7172 11.9531C19.0909 11.9591 19.692 11.9591 20.0529 11.953C20.4139 11.947 20.108 11.942 19.3734 11.9421C18.6387 11.9421 18.3434 11.947 18.7172 11.9531ZM23.1554 11.9745C23.1451 12.0015 23.1421 12.181 23.1489 12.3733L23.1612 12.723L23.1689 12.3432L23.1766 11.9633L24.5031 11.9531L25.8296 11.9429L24.5019 11.9341C23.4277 11.927 23.1707 11.9347 23.1554 11.9745ZM3.93295 12.3334C3.93295 12.5477 3.93908 12.6354 3.94659 12.5282C3.9541 12.4211 3.9541 12.2458 3.94659 12.1386C3.93908 12.0315 3.93295 12.1192 3.93295 12.3334ZM6.62759 12.3225C6.61758 12.5307 6.62249 12.6879 6.63863 12.6717C6.65477 12.6554 6.66294 12.485 6.65691 12.293L6.64596 11.9438L6.62759 12.3225ZM17.3598 12.8834L17.3511 13.8231L17.0392 13.811C16.8676 13.8045 16.735 13.8116 16.7445 13.8269C16.7758 13.8771 17.3517 13.8595 17.3716 13.8076C17.3815 13.7817 17.3848 13.3518 17.379 12.8522L17.3683 11.9438L17.3598 12.8834ZM20.7274 12.3225C20.7174 12.5307 20.7223 12.6879 20.7384 12.6717C20.7546 12.6554 20.7627 12.485 20.7567 12.293L20.7458 11.9438L20.7274 12.3225ZM17.9879 12.3219C17.9846 12.5095 17.9945 12.6708 18.0098 12.6803C18.0251 12.6898 18.0329 12.5865 18.0274 12.4506C18.0095 12.0202 17.994 11.9697 17.9879 12.3219ZM32.7281 13.0199C32.7281 13.428 32.7335 13.6001 32.7402 13.4022C32.7468 13.2043 32.7468 12.8703 32.7403 12.6601C32.7336 12.4499 32.7281 12.6117 32.7281 13.0199ZM30.5337 12.5834C30.6313 12.591 30.7816 12.5909 30.8677 12.5832C30.9538 12.5754 30.874 12.5692 30.6903 12.5692C30.5066 12.5693 30.4361 12.5757 30.5337 12.5834ZM31.6365 12.8274C31.6365 12.8338 31.6907 12.8881 31.7571 12.948L31.8777 13.057L31.7687 12.9364C31.6671 12.824 31.6365 12.7987 31.6365 12.8274ZM14.7167 14.3999C15.3984 14.4264 16.1183 14.4275 16.1025 14.402C16.093 14.3867 15.7146 14.3775 15.2618 14.3816C14.8089 14.3858 14.5637 14.394 14.7167 14.3999ZM31.8993 14.4624C31.9372 14.4967 32.2302 14.6335 32.2302 14.6169C32.2302 14.5958 31.9501 14.4484 31.91 14.4484C31.8957 14.4484 31.8908 14.4547 31.8993 14.4624ZM28.4455 15.6958C28.6634 15.7234 28.9567 15.7264 28.9407 15.7007C28.9313 15.6854 28.795 15.6754 28.638 15.6784C28.4811 15.6815 28.3945 15.6893 28.4455 15.6958ZM22.6386 16.7118C22.6386 17.2628 22.6511 17.7136 22.6664 17.7136C22.6817 17.7136 22.6942 17.2628 22.6942 16.7118C22.6942 16.1608 22.6817 15.71 22.6664 15.71C22.6511 15.71 22.6386 16.1608 22.6386 16.7118ZM28.3128 16.5077C28.3129 16.9567 28.3183 17.1353 28.3248 16.9046C28.3313 16.6739 28.3313 16.3065 28.3247 16.0883C28.3182 15.87 28.3128 16.0588 28.3128 16.5077ZM17.4416 16.7118C17.4416 17.2526 17.4468 17.4738 17.4531 17.2034C17.4594 16.933 17.4594 16.4906 17.4531 16.2202C17.4468 15.9498 17.4416 16.171 17.4416 16.7118ZM27.8146 16.7379C27.8045 17.2726 27.8089 17.6972 27.8246 17.6815C27.8403 17.6658 27.8486 17.2283 27.8432 16.7093L27.8332 15.7656L27.8146 16.7379ZM29.1134 16.2436C29.1134 16.2834 29.2237 16.4892 29.2452 16.4892C29.2554 16.4892 29.2361 16.4349 29.2023 16.3686C29.1335 16.2332 29.1134 16.205 29.1134 16.2436ZM12.5152 16.9592C12.4809 16.9934 12.4838 17.7136 12.5183 17.7137C12.5336 17.7137 12.5408 17.5474 12.5344 17.3441L12.5227 16.9744L12.8683 16.9621L13.214 16.9498L12.877 16.9421C12.6915 16.9379 12.5287 16.9456 12.5152 16.9592ZM14.8373 16.9621C15.0567 16.9687 15.4157 16.9687 15.6351 16.9621C15.8544 16.9556 15.6749 16.9502 15.2362 16.9502C14.7974 16.9502 14.6179 16.9556 14.8373 16.9621ZM18.2138 16.9617C18.3108 16.9693 18.4694 16.9693 18.5663 16.9617C18.6633 16.9541 18.584 16.9478 18.3901 16.9478C18.1962 16.9478 18.1169 16.9541 18.2138 16.9617ZM20.2527 16.9621C20.4303 16.9688 20.7308 16.9688 20.9206 16.9621C21.1104 16.9554 20.9652 16.9498 20.5978 16.9497C20.2305 16.9497 20.0752 16.9552 20.2527 16.9621ZM23.1554 16.9838C23.145 17.0109 23.142 17.182 23.1489 17.3641L23.1613 17.6951L23.169 17.3347L23.1766 16.9743L23.5198 16.9621L23.863 16.9498L23.5186 16.9421C23.2608 16.9364 23.1695 16.9469 23.1554 16.9838ZM25.4103 16.9621C25.5878 16.9688 25.8884 16.9688 26.0782 16.9621C26.268 16.9554 26.1227 16.9498 25.7554 16.9497C25.388 16.9497 25.2328 16.9552 25.4103 16.9621ZM17.9879 17.3311C17.9846 17.5186 17.9945 17.68 18.0098 17.6894C18.0251 17.699 18.0329 17.5956 18.0274 17.4597C18.0095 17.0293 17.994 16.9789 17.9879 17.3311ZM32.5621 17.2591L32.4342 17.3982L32.5734 17.2704C32.7029 17.1513 32.7296 17.12 32.7012 17.12C32.6951 17.12 32.6325 17.1826 32.5621 17.2591ZM23.8735 20.4496C23.9814 20.4572 24.1484 20.4572 24.2446 20.4495C24.3408 20.4419 24.2526 20.4357 24.0486 20.4358C23.8445 20.4359 23.7657 20.4421 23.8735 20.4496ZM30.0143 20.4496C30.1118 20.4573 30.2621 20.4572 30.3482 20.4494C30.4343 20.4416 30.3545 20.4354 30.1708 20.4355C29.9872 20.4355 29.9167 20.4419 30.0143 20.4496ZM7.30503 20.6355L9.78178 20.6455V21.5755V22.5056L9.46806 22.4936C9.29552 22.487 9.16769 22.4949 9.18402 22.5111C9.20034 22.5273 9.3457 22.5357 9.50702 22.5296L9.80033 22.5187V21.5725V20.6264L7.31431 20.626L4.82829 20.6255L7.30503 20.6355ZM11.5134 20.6326C11.4997 20.6461 11.4889 20.6753 11.4892 20.6975C11.4895 20.7221 11.5009 20.72 11.5186 20.6923C11.5386 20.6608 11.7164 20.6435 12.1024 20.6356L12.6574 20.6242L12.0978 20.616C11.7899 20.6115 11.5269 20.6189 11.5134 20.6326ZM15.9504 20.6356C16.4351 20.6415 17.2282 20.6415 17.7129 20.6356C18.1976 20.6297 17.801 20.625 16.8317 20.625C15.8623 20.625 15.4658 20.6297 15.9504 20.6356ZM26.1905 21.6958L26.1821 22.4314L25.8701 22.4194C25.6985 22.4128 25.566 22.4199 25.5754 22.4352C25.607 22.4858 26.1826 22.4677 26.2027 22.4155C26.2127 22.3894 26.2159 22.0513 26.2099 21.6642L26.1989 20.9603L26.1905 21.6958ZM19.9114 21.1458C19.9806 21.2173 20.0456 21.2757 20.0558 21.2757C20.066 21.2757 20.0177 21.2173 19.9485 21.1458C19.8793 21.0744 19.8143 21.016 19.8041 21.016C19.7938 21.016 19.8422 21.0744 19.9114 21.1458ZM27.9611 21.3035L27.8332 21.4427L27.9724 21.3148C28.0489 21.2444 28.1115 21.1818 28.1115 21.1757C28.1115 21.1473 28.0802 21.174 27.9611 21.3035ZM23.9475 21.2287C24.0347 21.2365 24.1683 21.2365 24.2444 21.2285C24.3204 21.2205 24.2489 21.2141 24.0857 21.2142C23.9224 21.2144 23.8603 21.2209 23.9475 21.2287ZM30.0688 21.2283C30.1351 21.2365 30.2437 21.2365 30.31 21.2283C30.3763 21.2201 30.322 21.2134 30.1894 21.2134C30.0567 21.2134 30.0025 21.2201 30.0688 21.2283ZM5.18978 21.377L5.51408 21.3898L5.52419 23.5034L5.53421 25.6169L5.53375 23.4927L5.53328 21.3685L5.19934 21.3664L4.8654 21.3643L5.18978 21.377ZM6.79299 21.3971C6.78297 21.423 6.77935 21.8279 6.78482 22.2969L6.79484 23.1495L7.62042 23.1506L8.446 23.1516L7.6297 23.1406L6.8134 23.1295V22.259V21.3885L7.60187 21.3777L8.39035 21.3669L7.60067 21.3584C6.98974 21.3518 6.80699 21.3606 6.79299 21.3971ZM15.4307 21.377L15.755 21.3898L15.7651 23.5034L15.7751 25.6169L15.7747 23.4927L15.7742 21.3685L15.4403 21.3664L15.1063 21.3643L15.4307 21.377ZM17.0339 21.3971C17.0239 21.423 17.0203 21.8279 17.0257 22.2969L17.0358 23.1495L17.6573 23.1509L18.2789 23.1523L17.6665 23.1407L17.0543 23.1292V22.2591V21.389L17.6202 21.3776L18.186 21.3664L17.619 21.3582C17.1884 21.3518 17.0476 21.3612 17.0339 21.3971ZM25.0875 21.6096C25.1672 21.6913 25.2407 21.7581 25.2509 21.7581C25.2611 21.7581 25.2043 21.6913 25.1246 21.6096C25.0449 21.528 24.9714 21.4612 24.9611 21.4612C24.9509 21.4612 25.0078 21.528 25.0875 21.6096ZM18.724 21.547C18.724 21.5534 18.7783 21.6077 18.8446 21.6676L18.9652 21.7766L18.8562 21.656C18.7546 21.5436 18.724 21.5184 18.724 21.547ZM19.9093 23.1588L19.7815 23.2979L19.9207 23.1701C19.9972 23.0997 20.0598 23.0371 20.0598 23.0309C20.0598 23.0025 20.0284 23.0293 19.9093 23.1588ZM22.3735 23.4834C22.3734 23.6671 22.3796 23.7469 22.3874 23.6608C22.3952 23.5747 22.3953 23.4244 22.3877 23.3268C22.38 23.2293 22.3736 23.2998 22.3735 23.4834ZM27.1224 23.4834C27.1226 23.6467 27.1291 23.7088 27.1369 23.6215C27.1448 23.5344 27.1447 23.4008 27.1367 23.3247C27.1287 23.2487 27.1223 23.3202 27.1224 23.4834ZM24.5124 23.3427C25.4918 23.369 26.3221 23.3697 26.3063 23.3443C26.2967 23.329 25.8016 23.32 25.2059 23.3243C24.6101 23.3287 24.2981 23.337 24.5124 23.3427ZM20.996 23.8359C20.996 23.9073 21.0036 23.9366 21.013 23.9009C21.0223 23.8651 21.0223 23.8067 21.013 23.771C21.0036 23.7353 20.996 23.7645 20.996 23.8359ZM17.0338 23.9573C17.0239 23.9834 17.0205 24.3716 17.0265 24.82L17.0372 25.6355L17.0458 24.7927L17.0543 23.9499L17.4161 23.9378L17.7779 23.9256L17.4149 23.9179C17.1493 23.9122 17.0471 23.9228 17.0338 23.9573ZM6.79289 24.0316C6.78288 24.0577 6.77963 24.4292 6.78557 24.8572L6.79642 25.6355L6.80495 24.8292L6.8134 24.0228L7.63898 24.0122L8.46456 24.0014L7.63777 23.9929C6.99539 23.9863 6.80699 23.9949 6.79289 24.0316ZM18.1334 24.0327C18.1419 24.0389 18.199 24.0732 18.2602 24.1091L18.3715 24.1742L18.284 24.0979C18.2357 24.0559 18.1787 24.0214 18.1572 24.0214C18.1356 24.0214 18.125 24.0265 18.1334 24.0327ZM25.0844 24.8934C25.0844 25.2812 25.0899 25.4348 25.0966 25.2347C25.1034 25.0347 25.1033 24.7174 25.0966 24.5297C25.0898 24.342 25.0843 24.5057 25.0844 24.8934ZM10.8449 24.6429C10.8355 24.6583 11.1392 24.6665 11.5199 24.6613C12.7985 24.6438 12.9243 24.6307 11.8897 24.6229C11.3246 24.6186 10.8544 24.6276 10.8449 24.6429ZM29.0763 25.3387C29.1455 25.4101 29.2105 25.4685 29.2207 25.4685C29.2309 25.4685 29.1826 25.4101 29.1134 25.3387C29.0442 25.2672 28.9791 25.2088 28.9689 25.2088C28.9587 25.2088 29.0071 25.2672 29.0763 25.3387ZM27.9817 25.6912C28.0821 25.7932 28.1728 25.8767 28.183 25.8767C28.1932 25.8767 28.1192 25.7932 28.0188 25.6912C27.9183 25.5891 27.8277 25.5056 27.8175 25.5056C27.8073 25.5056 27.8812 25.5891 27.9817 25.6912ZM32.3786 25.6726C32.2884 25.7644 32.223 25.8396 32.2332 25.8396C32.2434 25.8396 32.3255 25.7644 32.4157 25.6726C32.5058 25.5808 32.5712 25.5056 32.561 25.5056C32.5508 25.5056 32.4687 25.5808 32.3786 25.6726ZM21.8021 25.7004C21.8931 25.7974 21.9725 25.8767 21.9784 25.8767C22.0063 25.8767 21.9768 25.8434 21.813 25.6896L21.6367 25.5242L21.8021 25.7004ZM17.8099 26.0065C17.81 26.2106 17.8163 26.2894 17.8238 26.1816C17.8313 26.0737 17.8313 25.9067 17.8236 25.8105C17.816 25.7143 17.8099 25.8025 17.8099 26.0065ZM23.9836 25.7554C24.0704 25.7632 24.2123 25.7632 24.299 25.7554C24.3857 25.7477 24.3148 25.7412 24.1413 25.7412C23.9679 25.7412 23.8969 25.7477 23.9836 25.7554ZM30.0878 25.7549C30.1443 25.7634 30.2278 25.7632 30.2733 25.7544C30.319 25.7456 30.2729 25.7386 30.1708 25.7388C30.0688 25.7391 30.0314 25.7464 30.0878 25.7549ZM20.7277 26.0275C20.7277 26.1513 20.7101 26.2891 20.6885 26.3336C20.6507 26.4119 20.6513 26.4123 20.7071 26.3427C20.7608 26.2757 20.795 25.8025 20.7462 25.8025C20.736 25.8025 20.7277 25.9038 20.7277 26.0275ZM23.8715 26.5343C23.9373 26.5424 24.0542 26.5426 24.1312 26.5345C24.2082 26.5265 24.1543 26.5198 24.0115 26.5196C23.8686 26.5194 23.8056 26.526 23.8715 26.5343ZM30.0688 26.5343C30.1351 26.5425 30.2437 26.5425 30.31 26.5343C30.3763 26.5261 30.322 26.5193 30.1894 26.5193C30.0567 26.5193 30.0025 26.5261 30.0688 26.5343ZM9.86526 37.3328C14.8192 37.338 22.9257 37.338 27.8796 37.3328C32.8336 37.3276 28.7803 37.3233 18.8724 37.3233C8.96454 37.3233 4.91131 37.3276 9.86526 37.3328Z" fill="#9C9C9C"/>
</g>
<defs>
<clipPath id="clip0_50_30">
<rect width="37.1048" height="40" fill="white" transform="translate(0.320068 0.75676)"/>
</clipPath>
</defs>
</svg>
