<svg width="24" height="24" viewBox="0 0 24 24" fill="none" xmlns="http://www.w3.org/2000/svg">
<path d="M10.4962 10.5C12.9814 10.5 14.9962 8.48527 14.9962 6C14.9962 3.51473 12.9814 1.5 10.4962 1.5C8.01089 1.5 5.99615 3.51473 5.99615 6C5.99615 8.48527 8.01089 10.5 10.4962 10.5Z" fill="black"/>
<path d="M22.5 10.5091C22.5022 9.88281 22.3359 9.26737 22.0187 8.7272C21.7014 8.18702 21.2449 7.74189 20.6965 7.4383C20.1483 7.13471 19.5284 6.98385 18.9018 7.00137C18.2751 7.01895 17.6647 7.20438 17.1343 7.53821C16.604 7.87204 16.1731 8.34208 15.8867 8.89917C15.6003 9.45633 15.4689 10.08 15.5062 10.7053C15.5436 11.3304 15.7483 11.9341 16.0991 12.4532C16.4497 12.9723 16.9336 13.3878 17.5 13.6562V19.0014L19 20.5L21.5 18.0023L20 16.5036L21.5 15.005L20.26 13.7661C20.9185 13.5122 21.4849 13.0653 21.8846 12.484C22.2844 11.9028 22.4988 11.2143 22.5 10.5091ZM19 10.5091C18.8022 10.5091 18.6089 10.4505 18.4444 10.3407C18.2799 10.231 18.1518 10.0749 18.0761 9.89233C18.0004 9.70977 17.9806 9.50888 18.0192 9.31506C18.0578 9.1213 18.153 8.94327 18.2929 8.80353C18.4327 8.66379 18.6109 8.56867 18.8049 8.53011C18.9989 8.49154 19.1999 8.51133 19.3827 8.58699C19.5654 8.66259 19.7215 8.79061 19.8315 8.95492C19.9413 9.11924 20 9.3124 20 9.51002C20 9.77497 19.8946 10.0291 19.7071 10.2164C19.5195 10.4038 19.2652 10.5091 19 10.5091Z" fill="black"/>
<path d="M14.44 12.52C13.6721 12.1776 12.8408 12.0005 12 12H9C7.40873 12 5.8826 12.6321 4.75733 13.7573C3.63213 14.8826 3 16.4087 3 18V20H16V14.49C15.3256 13.9719 14.7897 13.2952 14.44 12.52Z" fill="black"/>
</svg>
