<svg width="32" height="32" viewBox="0 0 32 32" fill="none" xmlns="http://www.w3.org/2000/svg">
<rect width="32" height="32" rx="16" fill="#111827"/>
<path d="M14.797 14.6C16.7852 14.6 18.397 12.9882 18.397 11C18.397 9.01181 16.7852 7.40002 14.797 7.40002C12.8087 7.40002 11.197 9.01181 11.197 11C11.197 12.9882 12.8087 14.6 14.797 14.6Z" fill="#F9FAFB"/>
<path d="M24.4 14.6073C24.4018 14.1063 24.2688 13.6139 24.015 13.1818C23.7612 12.7497 23.3959 12.3936 22.9573 12.1507C22.5187 11.9078 22.0228 11.7871 21.5215 11.8011C21.0202 11.8152 20.5318 11.9636 20.1075 12.2306C19.6833 12.4977 19.3385 12.8737 19.1094 13.3194C18.8803 13.7651 18.7752 14.2641 18.805 14.7643C18.8349 15.2644 18.9987 15.7474 19.2793 16.1626C19.5598 16.5779 19.9469 16.9103 20.4001 17.125V21.4011L21.6 22.6L23.6 20.6019L22.4 19.403L23.6 18.2041L22.608 17.213C23.1349 17.0098 23.5879 16.6523 23.9078 16.1873C24.2276 15.7223 24.3991 15.1715 24.4 14.6073ZM21.6 14.6073C21.4418 14.6073 21.2871 14.5604 21.1556 14.4726C21.024 14.3848 20.9215 14.26 20.8609 14.1139C20.8004 13.9679 20.7845 13.8072 20.8154 13.6521C20.8463 13.4971 20.9224 13.3547 21.0343 13.2429C21.1462 13.1311 21.2887 13.055 21.4439 13.0241C21.5991 12.9933 21.76 13.0091 21.9062 13.0696C22.0524 13.1301 22.1773 13.2325 22.2652 13.364C22.3531 13.4954 22.4 13.65 22.4 13.8081C22.4 14.02 22.3157 14.2233 22.1657 14.3732C22.0157 14.5231 21.8122 14.6073 21.6 14.6073Z" fill="#F9FAFB"/>
<path d="M17.952 16.216C17.3377 15.9421 16.6727 15.8004 16 15.8H13.6C12.327 15.8 11.1061 16.3058 10.2059 17.2059C9.30576 18.1061 8.80005 19.327 8.80005 20.6V22.2H19.2V17.792C18.6605 17.3776 18.2318 16.8362 17.952 16.216Z" fill="#F9FAFB"/>
</svg>
